<svg width="34" height="34" viewBox="0 0 34 34" fill="none" xmlns="http://www.w3.org/2000/svg">
<path d="M5.76065 5.61287H12.0177L14.0342 10.6547L10.7942 12.8147C10.6034 12.942 10.4469 13.1145 10.3387 13.3167C10.2306 13.519 10.174 13.7448 10.174 13.9742C10.1782 14.1052 10.174 13.9756 10.174 13.9756V14.0048C10.1748 14.0671 10.1776 14.1294 10.1824 14.1916C10.1907 14.3058 10.2047 14.4605 10.2312 14.6514C10.2855 15.0277 10.39 15.5461 10.5935 16.1565C11.0032 17.3828 11.8059 18.97 13.3694 20.5336C14.933 22.0972 16.5202 22.8998 17.7452 23.3095C18.3569 23.513 18.8739 23.6161 19.253 23.6719C19.4669 23.7017 19.6823 23.7203 19.8982 23.7276L19.9163 23.729H19.9275C19.9275 23.729 20.0835 23.7206 19.9289 23.729C20.1876 23.7289 20.4412 23.6567 20.6612 23.5206C20.8812 23.3845 21.059 23.1898 21.1747 22.9584L22.1084 21.091L28.2901 22.1222V28.1424C25.3484 28.5674 17.4024 28.9869 11.1593 22.7438C4.91616 16.5007 5.33423 8.55326 5.76065 5.61287ZM13.0628 14.6514L15.581 12.9736C16.113 12.6188 16.5068 12.0918 16.6963 11.4811C16.8858 10.8703 16.8596 10.213 16.622 9.61932L14.6055 4.57747C14.3986 4.06033 14.0414 3.61705 13.5802 3.30482C13.1189 2.9926 12.5747 2.82574 12.0177 2.82578H5.68819C4.42145 2.82578 3.22997 3.7051 3.02233 5.07914C2.54852 8.20348 1.9061 17.4316 9.18878 24.7142C16.4715 31.9969 25.6995 31.3531 28.8239 30.8807C30.1979 30.6717 31.0772 29.4816 31.0772 28.2148V22.1222C31.0773 21.4625 30.8434 20.8241 30.417 20.3206C29.9906 19.8172 29.3994 19.4813 28.7486 19.3728L22.5668 18.3429C21.9789 18.2448 21.375 18.3377 20.8438 18.6081C20.3125 18.8785 19.882 19.3121 19.6153 19.8452L19.1331 20.8109C18.9626 20.7689 18.7939 20.7201 18.6273 20.6646C17.7633 20.3775 16.5634 19.7867 15.3399 18.5631C14.1164 17.3396 13.5255 16.1397 13.2384 15.2743C13.1699 15.0698 13.1117 14.8619 13.0642 14.6514H13.0628Z" fill="url(#paint0_linear_991_1036)"/>
<defs>
<linearGradient id="paint0_linear_991_1036" x1="2.76074" y1="31.1417" x2="21.5571" y2="36.4617" gradientUnits="userSpaceOnUse">
<stop stop-color="#008579"/>
<stop offset="1" stop-color="#00BA63"/>
</linearGradient>
</defs>
</svg>
