<svg width="22" height="22" viewBox="0 0 22 22" fill="none" xmlns="http://www.w3.org/2000/svg">
<path fill-rule="evenodd" clip-rule="evenodd" d="M11 13.0032L19.0141 21.0173C19.2813 21.2753 19.6392 21.4181 20.0106 21.4149C20.382 21.4117 20.7374 21.2627 21 21C21.2627 20.7373 21.4117 20.382 21.4149 20.0106C21.4181 19.6391 21.2753 19.2813 21.0173 19.0141L13.0032 11L21.0173 2.98592C21.2753 2.71874 21.4181 2.36089 21.4149 1.98944C21.4117 1.61799 21.2627 1.26268 21 1.00002C20.7374 0.737354 20.382 0.588364 20.0106 0.585137C19.6392 0.581909 19.2813 0.724701 19.0141 0.982758L11 8.99684L2.98595 0.982758C2.71756 0.73108 2.36179 0.593693 1.9939 0.599666C1.62602 0.60564 1.27489 0.754507 1.01481 1.01477C0.754739 1.27503 0.606121 1.62626 0.600407 1.99415C0.594694 2.36203 0.732333 2.71771 0.984201 2.98592L8.99687 11L0.982784 19.0141C0.847478 19.1448 0.739554 19.3011 0.665308 19.4739C0.591062 19.6468 0.551981 19.8327 0.550346 20.0208C0.548712 20.2089 0.584556 20.3954 0.655787 20.5695C0.727018 20.7436 0.83221 20.9018 0.965225 21.0348C1.09824 21.1678 1.25641 21.273 1.43052 21.3443C1.60462 21.4155 1.79116 21.4513 1.97927 21.4497C2.16737 21.4481 2.35327 21.409 2.52611 21.3347C2.69895 21.2605 2.85527 21.1526 2.98595 21.0173L11 13.0032Z" fill="black"/>
</svg>
