<svg width="698" height="698" viewBox="0 0 698 698" fill="none" xmlns="http://www.w3.org/2000/svg">
<path d="M348.981 682.738C500.637 682.738 623.579 612.899 623.579 526.749C623.579 440.6 500.637 370.761 348.981 370.761C197.324 370.761 74.3818 440.6 74.3818 526.749C74.3818 612.899 197.324 682.738 348.981 682.738Z" fill="#F5F5F5"/>
<path d="M463.258 625.105L258.269 506.753C250.367 502.191 250.371 490.785 258.277 486.229L278.497 473.482C285.599 469.39 294.345 469.394 301.444 473.492L506.433 591.842C514.335 596.405 514.33 607.811 506.425 612.368L486.203 625.114C479.103 629.207 470.357 629.203 463.258 625.105Z" fill="#E0E0E0"/>
<path d="M151.584 517.209C176.154 517.209 196.072 505.774 196.072 491.668C196.072 477.562 176.154 466.127 151.584 466.127C127.014 466.127 107.097 477.562 107.097 491.668C107.097 505.774 127.014 517.209 151.584 517.209Z" fill="#E6E6E6"/>
<path d="M535.934 523.062L555.454 534.283C555.454 534.283 545.488 502.969 550.796 471.396C552.8 459.48 557.104 453.545 558.618 450.361C560.133 447.176 571.78 427.445 561.406 418.422C551.031 409.399 526.869 427.553 528.177 476.134C528.849 501.065 535.934 523.062 535.934 523.062Z" fill="url(#paint0_linear_991_1064)"/>
<path opacity="0.5" d="M535.934 523.062L555.454 534.283C555.454 534.283 545.488 502.969 550.796 471.396C552.8 459.48 557.104 453.545 558.618 450.361C560.133 447.176 571.78 427.445 561.406 418.422C551.031 409.399 526.869 427.553 528.177 476.134C528.849 501.065 535.934 523.062 535.934 523.062Z" fill="black"/>
<path d="M545.008 528.975C544.725 528.975 544.459 528.802 544.354 528.521C544.279 528.319 536.836 507.942 537.073 475.187C537.311 442.275 554.512 424.661 554.686 424.488C554.958 424.215 555.398 424.216 555.67 424.487C555.943 424.758 555.943 425.199 555.673 425.472C555.503 425.642 538.699 442.887 538.466 475.197C538.231 507.675 545.585 527.835 545.66 528.036C545.794 528.397 545.611 528.797 545.25 528.932C545.171 528.961 545.089 528.975 545.008 528.975Z" fill="white"/>
<path d="M544.073 527.853L570.75 543.122C576.527 546.429 584.085 545.002 587.777 539.463C589.305 537.17 590.244 534.153 589.879 530.196C588.601 516.347 582.58 513.151 589.957 506.972C597.336 500.793 599.253 500.367 598.827 494.402C598.4 488.437 594.352 485.879 592.435 483.537C590.517 481.193 585.191 476.293 588.813 469.05C592.435 461.806 597.373 454.791 589.878 451.579C585.403 449.661 577.946 452.218 573.046 457.544C568.147 462.871 564.098 466.706 559.41 467.984C554.724 469.261 544.923 469.475 545.349 477.571C545.776 485.668 547.911 488.439 545.989 492.058C542.369 498.877 526.602 502.712 544.073 527.853Z" fill="url(#paint1_linear_991_1064)"/>
<path d="M557.26 536.099C556.905 536.099 556.601 535.828 556.567 535.466C556.523 534.987 552.465 487.163 585.347 455.34C585.623 455.074 586.065 455.079 586.332 455.357C586.6 455.632 586.591 456.074 586.316 456.342C553.907 487.705 557.909 534.864 557.955 535.338C557.99 535.721 557.709 536.06 557.327 536.096C557.303 536.097 557.282 536.099 557.26 536.099Z" fill="white"/>
<path d="M562.54 494.935C562.184 494.935 561.879 494.66 561.848 494.298C560.757 481.605 551.859 475.223 551.768 475.16C551.452 474.939 551.377 474.505 551.598 474.19C551.82 473.874 552.257 473.799 552.568 474.02C552.956 474.292 562.088 480.846 563.234 494.178C563.268 494.561 562.984 494.9 562.6 494.932C562.581 494.933 562.561 494.935 562.54 494.935Z" fill="white"/>
<path d="M560.264 503.146C560.101 503.146 559.937 503.088 559.804 502.971C559.516 502.718 559.486 502.277 559.74 501.989C560.08 501.6 568.306 492.511 587.622 494.929C588.004 494.977 588.274 495.325 588.227 495.707C588.18 496.089 587.817 496.351 587.448 496.312C568.912 493.986 560.867 502.819 560.787 502.909C560.65 503.066 560.458 503.146 560.264 503.146Z" fill="white"/>
<path d="M457.013 610.963L276.732 506.879C264.012 499.535 253.701 479.833 253.701 462.873V76.8326C253.701 59.8731 264.013 52.0776 276.732 59.4216L457.013 163.506C469.733 170.85 480.044 190.552 480.044 207.511V593.551C480.045 610.511 469.733 618.307 457.013 610.963Z" fill="#455A64"/>
<path d="M477.773 151.406L297.493 47.3214C292.054 44.1817 287.06 43.8166 283.12 45.7453L283.116 45.7481C282.633 45.985 282.164 46.2581 281.713 46.5633L261.516 58.3054C265.576 55.8792 270.9 56.0534 276.735 59.423L457.016 163.507C469.736 170.851 480.047 190.553 480.047 207.513V593.552C480.047 602.518 477.164 608.92 472.566 611.881L492.498 600.27L492.495 600.268C497.572 597.565 500.805 590.946 500.805 581.452V195.411C500.805 178.452 490.493 158.75 477.773 151.406Z" fill="#37474F"/>
<path d="M480.045 207.513V593.552C480.045 602.518 477.162 608.92 472.565 611.881L492.497 600.27L492.494 600.267C497.571 597.565 500.804 590.946 500.804 581.452V195.411C500.804 195.401 500.804 195.39 500.804 195.38L480.043 207.435C480.044 207.461 480.045 207.486 480.045 207.513Z" fill="#263238"/>
<path d="M500.805 225.381L480.045 237.367V246.726L500.805 234.74V225.381Z" fill="#37474F"/>
<path d="M491.709 287.662C489.852 288.734 488.347 287.597 488.347 285.121V264.988C488.347 262.512 489.852 259.635 491.709 258.564C493.567 257.492 495.072 258.629 495.072 261.106V281.238C495.071 283.715 493.566 286.591 491.709 287.662Z" fill="#37474F"/>
<path d="M488.347 285.121V264.988C488.347 262.512 489.852 259.635 491.709 258.564C492.519 258.097 493.25 258.07 493.83 258.37L493.834 258.346L491.323 257.043L491.319 257.064C490.731 256.731 489.976 256.745 489.139 257.227C487.283 258.3 485.777 261.177 485.777 263.652V283.784C485.777 285.121 486.224 286.049 486.92 286.468L486.915 286.489L489.552 287.863L489.556 287.839C488.823 287.444 488.347 286.5 488.347 285.121Z" fill="#455A64"/>
<path d="M491.709 336.4C489.852 337.472 488.347 336.335 488.347 333.859V313.726C488.347 311.25 489.852 308.373 491.709 307.302C493.567 306.23 495.072 307.367 495.072 309.844V329.976C495.071 332.453 493.566 335.329 491.709 336.4Z" fill="#37474F"/>
<path d="M488.347 333.859V313.726C488.347 311.25 489.852 308.373 491.709 307.302C492.519 306.835 493.25 306.808 493.83 307.108L493.834 307.084L491.323 305.781L491.319 305.802C490.731 305.469 489.976 305.483 489.139 305.965C487.283 307.038 485.777 309.913 485.777 312.39V332.522C485.777 333.859 486.224 334.787 486.92 335.206L486.915 335.227L489.552 336.601L489.556 336.577C488.823 336.182 488.347 335.238 488.347 333.859Z" fill="#455A64"/>
<path d="M450.746 174.363L273.567 72.0499C270.309 70.1686 266.237 72.5195 266.237 76.2807V462.872C266.237 475.782 275.385 491.625 286.564 498.079L459.436 597.887C463.024 599.958 467.509 597.369 467.509 593.227V203.397C467.509 192.752 459.966 179.686 450.746 174.363Z" fill="url(#paint2_linear_991_1064)"/>
<path opacity="0.9" d="M450.746 174.363L273.567 72.0499C270.309 70.1686 266.237 72.5195 266.237 76.2807V462.872C266.237 475.782 275.385 491.625 286.564 498.079L459.436 597.887C463.024 599.958 467.509 597.369 467.509 593.227V203.397C467.509 192.752 459.966 179.686 450.746 174.363Z" fill="white"/>
<path d="M326.546 98.76L329.29 110.321L388.015 144.18L398.155 138.774L326.546 98.76Z" fill="#455A64"/>
<path d="M343.803 109.929C343.803 111.847 342.457 112.623 340.797 111.664C339.138 110.706 337.792 108.376 337.792 106.458C337.792 104.542 339.138 103.764 340.797 104.723C342.459 105.682 343.803 108.013 343.803 109.929Z" fill="#263238"/>
<path d="M383.369 134.383C383.057 134.383 382.743 134.307 382.453 134.144L352.458 117.383C351.553 116.876 351.228 115.731 351.734 114.825C352.241 113.918 353.388 113.594 354.292 114.1L384.287 130.86C385.193 131.368 385.518 132.513 385.012 133.419C384.667 134.035 384.028 134.383 383.369 134.383Z" fill="#263238"/>
<path d="M303.377 152.512C301.551 151.459 300.229 152.374 300.229 154.705C300.229 157.062 301.551 159.531 303.377 160.585C304.461 161.212 305.831 161.224 306.829 160.572L309.74 165.837C308.045 166.99 305.462 166.877 303.116 165.522C298.448 162.827 295.062 157.035 295.062 151.796C295.062 146.631 298.536 144.877 303.313 147.635C305.636 148.977 308.175 151.697 309.74 154.555L306.829 156.861C305.917 154.906 304.549 153.189 303.377 152.512Z" fill="url(#paint3_linear_991_1064)"/>
<path d="M326.5 169.975C326.5 175.189 322.984 176.995 318.142 174.2C313.301 171.404 309.783 165.563 309.783 160.323C309.783 155.108 313.301 153.404 318.142 156.199C322.984 158.993 326.5 164.784 326.5 169.975ZM314.95 163.332C314.95 165.738 316.469 168.396 318.207 169.399C319.945 170.402 321.334 169.424 321.334 167.017C321.334 164.609 319.945 162.079 318.207 161.075C316.449 160.059 314.95 160.923 314.95 163.332Z" fill="url(#paint4_linear_991_1064)"/>
<path d="M332.124 164.446L338.137 176.944V167.918L342.696 170.55V188.124L338.486 185.692L332.492 173.258V182.234L327.912 179.589V162.015L332.124 164.446Z" fill="url(#paint5_linear_991_1064)"/>
<path d="M357.593 179.15V183.737L353.251 181.23V194.217L348.214 191.308V178.322L343.893 175.827V171.239L357.593 179.15Z" fill="url(#paint6_linear_991_1064)"/>
<path d="M367.406 199.909L361.695 196.612L360.915 198.643L355.749 195.659L362.175 181.795L367.342 184.778L373.528 205.925L368.166 202.829L367.406 199.909ZM366.169 195.033L364.606 188.991L363 193.204L366.169 195.033Z" fill="url(#paint7_linear_991_1064)"/>
<path d="M381.522 197.628C379.696 196.575 378.374 197.49 378.374 199.822C378.374 202.178 379.696 204.647 381.522 205.701C382.606 206.328 383.976 206.341 384.974 205.688L387.885 210.953C386.19 212.106 383.607 211.993 381.261 210.638C376.593 207.943 373.207 202.152 373.207 196.912C373.207 191.747 376.681 189.993 381.458 192.751C383.781 194.093 386.32 196.813 387.885 199.671L384.974 201.977C384.061 200.022 382.694 198.305 381.522 197.628Z" fill="url(#paint8_linear_991_1064)"/>
<path d="M401.625 204.572V209.16L397.284 206.653V219.639L392.248 216.731V203.744L387.927 201.25V196.662L401.625 204.572Z" fill="url(#paint9_linear_991_1064)"/>
<path d="M416.5 226.147C417.737 226.862 418.692 226.31 418.692 224.554V214.426L423.73 217.334V227.463C423.73 232.127 420.885 233.518 416.478 230.973C412.047 228.416 409.118 223.69 409.118 219.027V208.899L414.154 211.807V221.936C414.156 223.664 415.241 225.42 416.5 226.147Z" fill="url(#paint10_linear_991_1064)"/>
<path d="M431.851 226.21C431.287 225.885 430.917 225.871 430.917 226.398C430.917 228.604 438.798 231.776 438.798 238.143C438.798 242.054 435.823 242.066 432.392 240.085C429.744 238.557 426.791 235.824 424.771 232.878L426.639 229.593C428.201 232 430.894 234.783 432.435 235.672C433.174 236.1 433.652 236.1 433.652 235.471C433.652 233.19 425.771 230.144 425.771 223.977C425.771 220.468 428.332 219.741 432.283 222.021C434.693 223.413 437.19 225.682 438.907 227.925L437.083 231.285C435.541 229.418 433.175 226.974 431.851 226.21Z" fill="url(#paint11_linear_991_1064)"/>
<path d="M278.034 239.111C283.065 232.943 286.084 225.071 286.084 216.491C286.084 196.711 270.05 180.677 250.27 180.677C230.49 180.677 214.456 196.711 214.456 216.491C214.456 236.271 230.49 252.305 250.27 252.305C256.989 252.305 263.272 250.452 268.646 247.233L286.086 254.807L278.034 239.111Z" fill="url(#paint12_linear_991_1064)"/>
<path opacity="0.4" d="M278.034 239.111C283.065 232.943 286.084 225.071 286.084 216.491C286.084 196.711 270.05 180.677 250.27 180.677C230.49 180.677 214.456 196.711 214.456 216.491C214.456 236.271 230.49 252.305 250.27 252.305C256.989 252.305 263.272 250.452 268.646 247.233L286.086 254.807L278.034 239.111Z" fill="black"/>
<path d="M237.012 214.588C237.012 214.034 236.62 213.736 235.905 213.736C234.684 213.736 233.073 214.543 231.507 215.808L229.527 211.962C231.829 210.374 234.201 209.429 236.736 209.429C240.073 209.429 242.608 211.179 242.608 213.804C242.608 215.669 241.248 217.467 239.429 219.263L236.943 221.727H242.838V225.825H230.172L230.148 222.463L235.791 216.636C236.458 215.946 237.012 215.141 237.012 214.588Z" fill="white"/>
<path d="M253.147 209.66L249.301 218.894H250.867V215.785H255.725V218.894H257.568V222.694H255.725V225.825H250.867V222.694H243.982V219.239L248.128 209.66H253.147Z" fill="white"/>
<path d="M272.532 217.79V225.827H267.35V219.287C267.35 218.228 266.751 217.56 265.854 217.56C264.841 217.56 264.197 218.367 264.197 219.586V225.828H259.014V208.74H264.197V215.027C265.048 213.738 266.361 213 268.019 213C270.667 212.999 272.532 214.887 272.532 217.79Z" fill="white"/>
<path d="M441.564 347.283V520.426C441.564 529.026 432.25 534.408 424.803 530.101L331.543 476.251L315.024 466.724C311.534 464.711 308.449 462.175 305.846 459.25C299.794 452.487 296.306 443.644 296.306 434.292V261.134C296.306 252.533 305.605 247.165 313.066 251.458L422.831 314.848C434.426 321.531 441.564 333.903 441.564 347.283Z" fill="url(#paint13_linear_991_1064)"/>
<path opacity="0.5" d="M441.564 347.283V520.426C441.564 529.026 432.25 534.408 424.803 530.101L331.543 476.251L315.024 466.724C311.534 464.711 308.449 462.175 305.846 459.25C299.794 452.487 296.306 443.644 296.306 434.292V261.134C296.306 252.533 305.605 247.165 313.066 251.458L422.831 314.848C434.426 321.531 441.564 333.903 441.564 347.283Z" fill="white"/>
<path d="M387.85 449.728C387.85 449.728 405.314 478.686 392.692 511.342L331.543 476.25L387.85 449.728Z" fill="#263238"/>
<path d="M415.685 319.618C417.006 308.886 409.377 299.114 398.645 297.793C387.913 296.472 378.141 304.101 376.82 314.833C375.498 325.565 383.127 335.337 393.86 336.658C404.592 337.979 414.363 330.35 415.685 319.618Z" fill="#263238"/>
<path d="M396.34 262.307C396.34 262.307 402.352 252.507 404.197 253.263C406.042 254.018 402.996 263.275 402.996 263.275C402.996 263.275 412.087 265.164 410.387 267.431C408.687 269.698 397.595 269.176 397.595 269.176L396.34 262.307Z" fill="#263238"/>
<path d="M400.57 287.448C396.343 318.861 369.907 318.861 369.907 318.861L314.421 294.453C314.421 294.453 310.234 290.79 308.959 282.363C308.516 279.478 308.409 276.015 308.945 271.963C308.945 271.936 308.959 271.896 308.959 271.868C310.73 258.664 320.607 244.454 342.13 240.092C346.423 239.206 351.188 238.724 356.447 238.724C358.85 238.724 361.157 238.831 363.372 239.072C380.158 240.71 391.82 248.519 397.402 260.65C398.623 263.306 399.55 266.166 400.167 269.225C401.308 274.728 401.455 280.833 400.57 287.448Z" fill="#263238"/>
<path d="M267.392 348.207C267.392 348.207 247.697 347.534 240.112 366.723C240.112 366.723 248.492 372.367 259.449 366.748C270.405 361.129 267.392 348.207 267.392 348.207Z" fill="url(#paint14_linear_991_1064)"/>
<path opacity="0.5" d="M267.392 348.207C267.392 348.207 247.697 347.534 240.112 366.723C240.112 366.723 248.492 372.367 259.449 366.748C270.405 361.129 267.392 348.207 267.392 348.207Z" fill="black"/>
<path d="M266.825 357.446C266.825 357.446 261.269 333.233 258.322 332.933C255.224 332.618 254.806 340.323 255.046 344.654L248.029 329.667C247.103 327.689 244.706 326.926 242.792 327.978C235.813 331.812 223.602 343.46 249.377 372.269L266.825 357.446Z" fill="#945959"/>
<path d="M338.181 340.705L334.026 340.155C325.444 339.019 316.916 342.599 311.717 349.521L286.848 382.636L267.394 348.207C267.394 348.207 265.044 371.624 240.114 366.723L266.894 411.773C274.211 424.084 291.547 425.355 300.583 414.244L323.491 386.074L338.181 340.705Z" fill="url(#paint15_linear_991_1064)"/>
<path d="M391.271 417.972C385.702 432.102 385.085 434.866 388.546 441.924C391.995 448.969 394.155 458.148 394.155 458.148C394.155 458.148 368.324 487.106 331.543 476.25L315.024 466.722C311.535 464.71 308.449 462.174 305.846 459.249L310.785 421.81C311.04 419.838 310.839 417.81 310.194 415.932L304.921 400.461C299.66 385.016 303.727 367.934 315.4 356.54L333.154 339.189L379.785 345.067L386.71 347.067C396.13 349.777 402.142 359.009 400.8 368.724C398.503 385.244 394.773 409.089 391.271 417.972Z" fill="url(#paint16_linear_991_1064)"/>
<path opacity="0.5" d="M391.271 417.972C385.702 432.102 385.085 434.866 388.546 441.924C391.995 448.969 394.155 458.148 394.155 458.148C394.155 458.148 368.324 487.106 331.543 476.25L315.024 466.722C311.535 464.71 308.449 462.174 305.846 459.249L310.785 421.81C311.04 419.838 310.839 417.81 310.194 415.932L304.921 400.461C299.66 385.016 303.727 367.934 315.4 356.54L333.154 339.189L379.785 345.067L386.71 347.067C396.13 349.777 402.142 359.009 400.8 368.724C398.503 385.244 394.773 409.089 391.271 417.972Z" fill="black"/>
<path d="M363.159 375.806L353.821 367.851C351.804 366.133 349.03 365.608 346.524 366.469L335.235 370.35L333.717 364.029C332.721 359.876 328.46 357.394 324.356 358.576L319.461 359.985L327.749 344.126C330.448 338.962 334.609 334.707 339.712 331.894L342.955 330.106L369.782 331.487C369.782 331.487 379.784 335.628 379.784 345.074L363.159 375.806Z" fill="url(#paint17_linear_991_1064)"/>
<path d="M369.901 343.312L342.998 364.274V297.543H369.901V343.312Z" fill="#945959"/>
<path d="M343.416 337.821L335.234 370.349L369.782 343.312L343.416 337.821Z" fill="#945959"/>
<path d="M342.998 332.983C353.348 328.988 364.163 320.97 369.902 307.398V297.543H342.998V332.983Z" fill="#703838"/>
<path d="M348.805 248.089C338.601 248.089 316.908 253.776 314.405 280.469C311.902 307.164 314.317 327.879 328.097 329.863C341.876 331.848 373.861 321.874 378.144 287.316C382.428 252.758 358.757 248.089 348.805 248.089Z" fill="#945959"/>
<path d="M332.74 291.768V307.511L323.522 304.681L332.74 291.768Z" fill="#703838"/>
<path d="M342.998 297.699C344.77 297.699 346.206 296.263 346.206 294.491C346.206 292.719 344.77 291.283 342.998 291.283C341.227 291.283 339.791 292.719 339.791 294.491C339.791 296.263 341.227 297.699 342.998 297.699Z" fill="#263238"/>
<path d="M325.109 292.254C325.109 294.025 323.674 295.461 321.901 295.461C320.13 295.461 318.693 294.025 318.693 292.254C318.693 290.483 320.13 289.046 321.901 289.046C323.672 289.046 325.109 290.483 325.109 292.254Z" fill="#263238"/>
<path d="M317.994 285.575L324.266 281.85C324.266 281.85 321.858 279.349 319.462 280.851C317.066 282.355 317.994 285.575 317.994 285.575Z" fill="#263238"/>
<path d="M328.405 313.892C328.405 313.892 333.497 314.356 337.043 311.579C337.043 311.579 337.633 316.127 333.821 316.998C330.01 317.869 328.405 313.892 328.405 313.892Z" fill="#703838"/>
<path d="M322.937 257.166C322.937 257.166 326.773 294.032 376.892 295.182C376.892 295.182 392.034 258.551 362.106 246.649C332.179 234.75 322.937 257.166 322.937 257.166Z" fill="#263238"/>
<path d="M391.645 289.664L391.647 289.662L391.62 289.647C391.613 289.643 391.606 289.639 391.598 289.634L385.437 286.077L385.434 286.081C383.101 284.704 379.864 284.882 376.284 286.949C369.174 291.054 363.411 301.036 363.411 309.246C363.411 313.355 364.856 316.241 367.191 317.585L373.242 321.06C373.358 321.131 373.475 321.198 373.595 321.262L373.8 321.381L373.809 321.364C376.102 322.473 379.149 322.21 382.508 320.272C389.618 316.168 395.381 306.184 395.381 297.975C395.379 293.89 393.952 291.018 391.645 289.664Z" fill="url(#paint18_linear_991_1064)"/>
<path d="M391.6 310.67C396.627 301.962 396.627 292.551 391.601 289.649C386.574 286.746 378.423 291.452 373.396 300.159C368.369 308.867 368.368 318.278 373.395 321.18C378.422 324.083 386.572 319.377 391.6 310.67Z" fill="url(#paint19_linear_991_1064)"/>
<path opacity="0.5" d="M391.6 310.67C396.627 301.962 396.627 292.551 391.601 289.649C386.574 286.746 378.423 291.452 373.396 300.159C368.369 308.867 368.368 318.278 373.395 321.18C378.422 324.083 386.572 319.377 391.6 310.67Z" fill="black"/>
<path d="M394.122 297.395L394.123 297.394L394.105 297.383C394.099 297.38 394.095 297.377 394.089 297.374L389.874 294.94L389.873 294.942C388.276 294 386.061 294.123 383.611 295.536C378.746 298.345 374.803 305.175 374.803 310.793C374.803 313.605 375.792 315.579 377.389 316.498L381.528 318.875C381.607 318.924 381.688 318.97 381.77 319.015L381.91 319.095L381.917 319.084C383.485 319.842 385.571 319.664 387.869 318.337C392.734 315.528 396.677 308.698 396.677 303.081C396.677 300.287 395.7 298.322 394.122 297.395Z" fill="url(#paint20_linear_991_1064)"/>
<path d="M396.677 303.081C396.677 308.698 392.734 315.528 387.869 318.337C383.004 321.147 379.06 318.87 379.06 313.252C379.06 307.635 383.004 300.804 387.869 297.996C392.734 295.186 396.677 297.463 396.677 303.081Z" fill="url(#paint21_linear_991_1064)"/>
<path opacity="0.3" d="M396.677 303.081C396.677 308.698 392.734 315.528 387.869 318.337C383.004 321.147 379.06 318.87 379.06 313.252C379.06 307.635 383.004 300.804 387.869 297.996C392.734 295.186 396.677 297.463 396.677 303.081Z" fill="black"/>
<path d="M372.512 240.887C368.533 237.776 363.62 236.135 358.571 236.061C358.168 236.055 357.764 236.052 357.357 236.052C351.764 236.052 346.698 236.567 342.131 237.507C343.048 237.471 343.965 237.475 344.882 237.507H342.131V240.092H344.718C350.26 240.287 355.771 241.812 360.73 244.667C371.371 250.813 377.986 262.273 377.986 274.565V285.528C377.986 287.355 379.548 288.801 381.399 288.61C381.507 288.599 381.608 288.567 381.712 288.545L384.462 287.689V287.685C384.276 287.741 384.087 287.784 383.888 287.805C385.6 287.629 386.836 286.057 386.836 284.335V274.163C386.836 255.763 378.881 245.866 372.512 240.887Z" fill="url(#paint22_linear_991_1064)"/>
<path d="M354.977 329.097C353.847 329.097 352.71 328.857 351.64 328.361L342.926 324.332C342.406 324.091 342.179 323.474 342.42 322.954C342.663 322.433 343.28 322.211 343.797 322.447L352.511 326.476C354.786 327.529 357.483 327.022 359.222 325.213L367.535 316.569C367.933 316.156 368.59 316.142 369.003 316.54C369.416 316.937 369.43 317.595 369.033 318.007L360.72 326.651C359.184 328.25 357.097 329.097 354.977 329.097Z" fill="url(#paint23_linear_991_1064)"/>
<path opacity="0.5" d="M354.977 329.097C353.847 329.097 352.71 328.857 351.64 328.361L342.926 324.332C342.406 324.091 342.179 323.474 342.42 322.954C342.663 322.433 343.28 322.211 343.797 322.447L352.511 326.476C354.786 327.529 357.483 327.022 359.222 325.213L367.535 316.569C367.933 316.156 368.59 316.142 369.003 316.54C369.416 316.937 369.43 317.595 369.033 318.007L360.72 326.651C359.184 328.25 357.097 329.097 354.977 329.097Z" fill="black"/>
<path d="M345.221 321.379C345.221 323.627 343.399 325.449 341.152 325.449C338.904 325.449 337.083 323.627 337.083 321.379C337.083 319.132 338.904 317.31 341.152 317.31C343.399 317.31 345.221 319.132 345.221 321.379Z" fill="url(#paint24_linear_991_1064)"/>
<path opacity="0.5" d="M345.221 321.379C345.221 323.627 343.399 325.449 341.152 325.449C338.904 325.449 337.083 323.627 337.083 321.379C337.083 319.132 338.904 317.31 341.152 317.31C343.399 317.31 345.221 319.132 345.221 321.379Z" fill="black"/>
<path d="M386.836 274.166V284.338C386.836 286.06 385.6 287.63 383.888 287.807C381.92 288.01 380.257 286.471 380.257 284.53V274.167C380.257 261.097 373.223 248.911 361.907 242.375C355.815 238.865 348.936 237.238 342.13 237.509C346.697 236.567 351.762 236.054 357.356 236.054C357.763 236.054 358.168 236.057 358.57 236.062C363.618 236.136 368.533 237.778 372.511 240.888C378.881 245.866 386.836 255.763 386.836 274.166Z" fill="url(#paint25_linear_991_1064)"/>
<path opacity="0.5" d="M386.836 274.166V284.338C386.836 286.06 385.6 287.63 383.888 287.807C381.92 288.01 380.257 286.471 380.257 284.53V274.167C380.257 261.097 373.223 248.911 361.907 242.375C355.815 238.865 348.936 237.238 342.13 237.509C346.697 236.567 351.762 236.054 357.356 236.054C357.763 236.054 358.168 236.057 358.57 236.062C363.618 236.136 368.533 237.778 372.511 240.888C378.881 245.866 386.836 255.763 386.836 274.166Z" fill="black"/>
<path d="M371.175 465.886C371.175 465.886 364.428 484.487 388.54 492.798C388.54 492.798 396.415 481.242 388.54 471.781C380.666 462.32 371.175 465.886 371.175 465.886Z" fill="url(#paint26_linear_991_1064)"/>
<path opacity="0.7" d="M371.175 465.886C371.175 465.886 364.428 484.487 388.54 492.798C388.54 492.798 396.415 481.242 388.54 471.781C380.666 462.32 371.175 465.886 371.175 465.886Z" fill="black"/>
<path d="M379.595 466.728C379.595 466.728 356.051 475.365 356.171 478.699C356.29 482.032 366.184 479.765 366.184 479.765L362.568 482.129C358.77 484.613 355.828 488.204 354.141 492.417C353.371 494.338 354.176 496.533 356.005 497.502L364.953 502.241C367.083 503.368 369.722 502.514 370.787 500.353C371.777 498.342 373.556 496.852 375.684 496.143C380.546 494.521 389.579 489.864 393.252 477.135L379.595 466.728Z" fill="#945959"/>
<path d="M386.704 347.067C386.704 347.067 374.174 354.055 380.82 375.193C387.466 396.329 399.988 429.168 399.988 429.168L371.175 465.888C371.175 465.888 380.82 466.534 386.662 475.134C392.504 483.733 388.54 492.801 388.54 492.801L424.297 446.867C431.018 438.233 432.928 426.79 429.371 416.442L413.992 371.675C410.185 360.592 401.415 351.927 390.288 348.253L386.704 347.067Z" fill="url(#paint27_linear_991_1064)"/>
<path d="M174.999 222.109L119.579 190.111C117.906 189.146 116.372 189.034 115.16 189.626L115.158 189.628C115.009 189.7 114.866 189.784 114.726 189.879L102.674 196.943C102.697 196.929 102.724 196.919 102.747 196.906C101.234 197.763 100.272 199.771 100.272 202.639V264.262C100.272 269.475 103.443 275.532 107.353 277.789L162.773 309.786C164.666 310.879 166.38 310.873 167.649 309.994C167.616 310.016 167.586 310.047 167.553 310.068L179.524 303.043L179.522 303.042C181.083 302.211 182.077 300.177 182.077 297.257V235.634C182.078 230.423 178.909 224.366 174.999 222.109Z" fill="url(#paint28_linear_991_1064)"/>
<path d="M180.096 227.949C178.808 225.421 177.002 223.265 174.999 222.109L119.578 190.111C117.906 189.146 116.372 189.034 115.16 189.626L115.158 189.628C115.009 189.7 114.865 189.784 114.726 189.879L102.673 196.943C103.921 196.197 105.558 196.25 107.351 197.287L162.772 229.284C164.845 230.481 166.705 232.751 168 235.393L180.096 227.949Z" fill="url(#paint29_linear_991_1064)"/>
<path d="M169.853 304.434C169.853 307.19 168.967 309.158 167.554 310.068L179.524 303.043L179.523 303.042C181.084 302.211 182.077 300.177 182.077 297.257V235.634C182.077 233.093 181.319 230.353 180.094 227.948L168 235.391C169.147 237.73 169.852 240.36 169.852 242.808L169.853 304.434Z" fill="url(#paint30_linear_991_1064)"/>
<path opacity="0.3" d="M180.096 227.949C178.808 225.421 177.002 223.265 174.999 222.109L119.578 190.111C117.906 189.146 116.372 189.034 115.16 189.626L115.158 189.628C115.009 189.7 114.865 189.784 114.726 189.879L102.673 196.943C103.921 196.197 105.558 196.25 107.351 197.287L162.772 229.284C164.845 230.481 166.705 232.751 168 235.393L180.096 227.949Z" fill="black"/>
<path opacity="0.6" d="M169.853 304.434C169.853 307.19 168.967 309.158 167.554 310.068L179.524 303.043L179.523 303.042C181.084 302.211 182.077 300.177 182.077 297.257V235.634C182.077 233.093 181.319 230.353 180.094 227.948L168 235.391C169.147 237.73 169.852 240.36 169.852 242.808L169.853 304.434Z" fill="black"/>
<path d="M153.611 260.476C153.611 268.454 150.446 271.171 145.698 268.43C143.074 266.915 141.222 264.509 140.411 261.5C139.059 263.216 136.86 263.327 133.81 261.567C128.832 258.692 124.894 251.873 124.894 245.144C124.894 238.459 128.793 236.164 133.81 239.061C136.357 240.531 138.365 242.715 139.753 245.434V242.804L145.003 245.835V260.275C145.003 262.414 145.814 263.596 146.856 264.197C148.632 265.222 149.712 263.483 149.712 258.314C149.712 249.267 143.921 239.685 135.354 234.738C126.747 229.769 120.995 233.224 120.995 242.538C120.995 252.031 126.632 262.013 135.199 266.96C137.629 268.363 140.371 269.367 142.801 269.389L144.037 274.202C141.682 274.225 138.247 272.998 135.199 271.238C124.044 264.799 116.672 251.807 116.672 240.042C116.672 228.41 124.12 224.021 135.352 230.505C146.2 236.767 153.611 249.29 153.611 260.476ZM139.831 253.769C139.831 249.892 137.786 246.526 135.007 244.922C132.189 243.296 130.221 244.432 130.221 248.221C130.221 252.053 132.189 255.508 135.007 257.134C137.786 258.738 139.831 257.691 139.831 253.769Z" fill="url(#paint31_linear_991_1064)"/>
<g opacity="0.9">
<path d="M153.611 260.476C153.611 268.454 150.446 271.171 145.698 268.43C143.074 266.915 141.222 264.509 140.411 261.5C139.059 263.216 136.86 263.327 133.81 261.567C128.832 258.692 124.894 251.873 124.894 245.144C124.894 238.459 128.793 236.164 133.81 239.061C136.357 240.531 138.365 242.715 139.753 245.434V242.804L145.003 245.835V260.275C145.003 262.414 145.814 263.596 146.856 264.197C148.632 265.222 149.712 263.483 149.712 258.314C149.712 249.267 143.921 239.685 135.354 234.738C126.747 229.769 120.995 233.224 120.995 242.538C120.995 252.031 126.632 262.013 135.199 266.96C137.629 268.363 140.371 269.367 142.801 269.389L144.037 274.202C141.682 274.225 138.247 272.998 135.199 271.238C124.044 264.799 116.672 251.807 116.672 240.042C116.672 228.41 124.12 224.021 135.352 230.505C146.2 236.767 153.611 249.29 153.611 260.476ZM139.831 253.769C139.831 249.892 137.786 246.526 135.007 244.922C132.189 243.296 130.221 244.432 130.221 248.221C130.221 252.053 132.189 255.508 135.007 257.134C137.786 258.738 139.831 257.691 139.831 253.769Z" fill="white"/>
</g>
<path d="M174.999 331.885L119.579 299.888C117.906 298.922 116.372 298.811 115.16 299.403L115.158 299.405C115.009 299.477 114.866 299.561 114.726 299.655L102.674 306.719C102.697 306.705 102.724 306.696 102.747 306.683C101.234 307.54 100.272 309.548 100.272 312.416V374.039C100.272 379.252 103.443 385.308 107.353 387.566L162.773 419.563C164.666 420.656 166.38 420.65 167.649 419.771C167.616 419.793 167.586 419.824 167.553 419.845L179.524 412.82L179.522 412.818C181.083 411.988 182.077 409.953 182.077 407.034V345.411C182.078 340.201 178.909 334.143 174.999 331.885Z" fill="url(#paint32_linear_991_1064)"/>
<path d="M180.096 337.727C178.808 335.199 177.002 333.043 174.999 331.887L119.578 299.89C117.906 298.924 116.372 298.812 115.16 299.405L115.158 299.406C115.009 299.478 114.865 299.562 114.726 299.657L102.673 306.721C103.921 305.975 105.558 306.028 107.351 307.065L162.772 339.062C164.845 340.259 166.705 342.529 168 345.171L180.096 337.727Z" fill="url(#paint33_linear_991_1064)"/>
<path d="M169.853 414.212C169.853 416.968 168.967 418.936 167.554 419.846L179.524 412.821L179.523 412.82C181.084 411.989 182.077 409.955 182.077 407.035V345.413C182.077 342.871 181.319 340.131 180.094 337.726L168 345.169C169.147 347.508 169.852 350.138 169.852 352.588L169.853 414.212Z" fill="url(#paint34_linear_991_1064)"/>
<path opacity="0.3" d="M180.096 337.727C178.808 335.199 177.002 333.043 174.999 331.887L119.578 299.89C117.906 298.924 116.372 298.812 115.16 299.405L115.158 299.406C115.009 299.478 114.865 299.562 114.726 299.657L102.673 306.721C103.921 305.975 105.558 306.028 107.351 307.065L162.772 339.062C164.845 340.259 166.705 342.529 168 345.171L180.096 337.727Z" fill="black"/>
<path opacity="0.6" d="M169.853 414.212C169.853 416.968 168.967 418.936 167.554 419.846L179.524 412.821L179.523 412.82C181.084 411.989 182.077 409.955 182.077 407.035V345.413C182.077 342.871 181.319 340.131 180.094 337.726L168 345.169C169.147 347.508 169.852 350.138 169.852 352.588L169.853 414.212Z" fill="black"/>
<path d="M128.863 359.439L115.501 337.727V367.153L128.863 359.439Z" fill="url(#paint35_linear_991_1064)"/>
<path d="M141.286 365.694L154.624 388.796V359.42L141.286 365.694Z" fill="url(#paint36_linear_991_1064)"/>
<path d="M117.532 336.774L131.255 359.076C131.308 359.135 131.371 359.182 131.411 359.253C131.442 359.306 131.446 359.366 131.469 359.422L135.49 365.959L138.944 364.334C139.002 364.281 139.051 364.218 139.122 364.177C139.266 364.094 139.419 364.053 139.573 364.037L153.449 357.51L117.532 336.774Z" fill="url(#paint37_linear_991_1064)"/>
<path d="M139.263 366.647L135.538 368.399C135.386 368.472 135.223 368.505 135.065 368.505C134.689 368.505 134.324 368.314 134.115 367.975L130.031 361.338L116.616 369.083L152.695 389.914L139.263 366.647Z" fill="url(#paint38_linear_991_1064)"/>
<g opacity="0.9">
<path d="M128.863 359.439L115.501 337.727V367.153L128.863 359.439Z" fill="white"/>
<path d="M141.286 365.694L154.624 388.796V359.42L141.286 365.694Z" fill="white"/>
<path d="M117.532 336.774L131.255 359.076C131.308 359.135 131.371 359.182 131.411 359.253C131.442 359.306 131.446 359.366 131.469 359.422L135.49 365.959L138.944 364.334C139.002 364.281 139.051 364.218 139.122 364.177C139.266 364.094 139.419 364.053 139.573 364.037L153.449 357.51L117.532 336.774Z" fill="white"/>
<path d="M139.263 366.647L135.538 368.399C135.386 368.472 135.223 368.505 135.065 368.505C134.689 368.505 134.324 368.314 134.115 367.975L130.031 361.338L116.616 369.083L152.695 389.914L139.263 366.647Z" fill="white"/>
</g>
<path d="M174.999 112.332L119.579 80.3346C117.906 79.3689 116.372 79.2574 115.16 79.8496L115.158 79.851C115.009 79.9235 114.866 80.0071 114.726 80.1019L102.674 87.1658C102.697 87.1518 102.724 87.1421 102.747 87.1295C101.234 87.9866 100.272 89.9947 100.272 92.8626V154.485C100.272 159.699 103.443 165.756 107.353 168.014L162.773 200.011C164.666 201.104 166.38 201.098 167.649 200.219C167.616 200.241 167.586 200.272 167.553 200.293L179.524 193.268L179.522 193.266C181.083 192.436 182.077 190.401 182.077 187.482V125.859C182.078 120.646 178.909 114.589 174.999 112.332Z" fill="url(#paint39_linear_991_1064)"/>
<path d="M180.096 118.172C178.808 115.644 177.002 113.488 174.999 112.33L119.578 80.3346C117.906 79.3689 116.372 79.2574 115.16 79.8496L115.158 79.851C115.009 79.9235 114.865 80.0071 114.726 80.1019L102.673 87.1658C103.921 86.4202 105.558 86.4732 107.351 87.51L162.772 119.507C164.845 120.704 166.705 122.974 168 125.617L180.096 118.172Z" fill="url(#paint40_linear_991_1064)"/>
<path d="M169.853 194.657C169.853 197.414 168.967 199.381 167.554 200.291L179.524 193.266L179.523 193.265C181.084 192.434 182.077 190.4 182.077 187.48V125.858C182.077 123.316 181.319 120.576 180.094 118.171L168 125.614C169.147 127.954 169.852 130.583 169.852 133.033L169.853 194.657Z" fill="url(#paint41_linear_991_1064)"/>
<path opacity="0.3" d="M180.096 118.172C178.808 115.644 177.002 113.488 174.999 112.33L119.578 80.3346C117.906 79.3689 116.372 79.2574 115.16 79.8496L115.158 79.851C115.009 79.9235 114.865 80.0071 114.726 80.1019L102.673 87.1658C103.921 86.4202 105.558 86.4732 107.351 87.51L162.772 119.507C164.845 120.704 166.705 122.974 168 125.617L180.096 118.172Z" fill="black"/>
<path opacity="0.6" d="M169.853 194.657C169.853 197.414 168.967 199.381 167.554 200.291L179.524 193.266L179.523 193.265C181.084 192.434 182.077 190.4 182.077 187.48V125.858C182.077 123.316 181.319 120.576 180.094 118.171L168 125.614C169.147 127.954 169.852 130.583 169.852 133.033L169.853 194.657Z" fill="black"/>
<path d="M151.728 168.074C149.597 164.57 147.448 161.08 145.315 157.578C144.335 155.969 143.233 155.037 141.959 154.764C140.925 154.542 139.89 154.317 138.836 154C138.558 153.917 138.113 153.557 137.921 153.223C134.367 147.067 131.593 140.745 129.663 134.266C129.573 133.965 129.636 133.563 129.778 133.42C130.432 132.764 131.127 132.163 131.831 131.581C132.699 130.863 132.85 129.638 132.366 127.889C131.336 124.167 130.341 120.451 129.32 116.73C128.652 114.295 127.144 112.537 125.329 112.096C122.801 111.483 120.522 111.563 118.499 112.344C117.646 112.675 117.207 113.443 117.197 114.759C117.55 117.312 117.794 119.832 118.272 122.423C121.718 141.113 130.008 158.329 143.091 174.045C144.121 175.283 145.152 175.868 146.194 175.822C148.492 175.722 150.461 174.979 152.081 173.555C153.322 172.466 153.195 170.486 151.728 168.074Z" fill="url(#paint42_linear_991_1064)"/>
<path d="M151.562 149.127C151.336 145.402 150.234 141.566 148.267 137.64C146.846 134.8 145.1 132.243 143.047 129.966C142.495 129.353 142.031 129.155 141.765 129.624C141.493 130.104 141.757 130.736 142.293 131.337C142.476 131.542 142.657 131.748 142.832 131.963C146.872 136.864 149.191 142.126 149.776 147.749C149.821 148.178 149.744 148.603 149.899 149.02C150.064 149.463 150.419 150.065 150.724 150.282C151.013 150.487 151.344 150.281 151.583 150.263C151.574 149.715 151.58 149.428 151.562 149.127Z" fill="url(#paint43_linear_991_1064)"/>
<path d="M138.932 137.687C140.79 139.829 141.761 142.115 141.954 144.602C141.983 144.976 142.294 145.482 142.391 145.724C143.239 146.426 143.657 146.19 143.658 145.314C143.661 142.694 141.845 138.564 139.737 136.375C139.213 135.83 138.771 135.665 138.52 136.123C138.29 136.546 138.466 137.15 138.932 137.687Z" fill="url(#paint44_linear_991_1064)"/>
<g opacity="0.9">
<path d="M151.728 168.074C149.597 164.57 147.448 161.08 145.315 157.578C144.335 155.969 143.233 155.037 141.959 154.764C140.925 154.542 139.89 154.317 138.836 154C138.558 153.917 138.113 153.557 137.921 153.223C134.367 147.067 131.593 140.745 129.663 134.266C129.573 133.965 129.636 133.563 129.778 133.42C130.432 132.764 131.127 132.163 131.831 131.581C132.699 130.863 132.85 129.638 132.366 127.889C131.336 124.167 130.341 120.451 129.32 116.73C128.652 114.295 127.144 112.537 125.329 112.096C122.801 111.483 120.522 111.563 118.499 112.344C117.646 112.675 117.207 113.443 117.197 114.759C117.55 117.312 117.794 119.832 118.272 122.423C121.718 141.113 130.008 158.329 143.091 174.045C144.121 175.283 145.152 175.868 146.194 175.822C148.492 175.722 150.461 174.979 152.081 173.555C153.322 172.466 153.195 170.486 151.728 168.074Z" fill="white"/>
<path d="M151.562 149.127C151.336 145.402 150.234 141.566 148.267 137.64C146.846 134.8 145.1 132.243 143.047 129.966C142.495 129.353 142.031 129.155 141.765 129.624C141.493 130.104 141.757 130.736 142.293 131.337C142.476 131.542 142.657 131.748 142.832 131.963C146.872 136.864 149.191 142.126 149.776 147.749C149.821 148.178 149.744 148.603 149.899 149.02C150.064 149.463 150.419 150.065 150.724 150.282C151.013 150.487 151.344 150.281 151.583 150.263C151.574 149.715 151.58 149.428 151.562 149.127Z" fill="white"/>
<path d="M138.932 137.687C140.79 139.829 141.761 142.115 141.954 144.602C141.983 144.976 142.294 145.482 142.391 145.724C143.239 146.426 143.657 146.19 143.658 145.314C143.661 142.694 141.845 138.564 139.737 136.375C139.213 135.83 138.771 135.665 138.52 136.123C138.29 136.546 138.466 137.15 138.932 137.687Z" fill="white"/>
</g>
<path d="M459.344 75.4237L472.405 82.8541V78.2317C472.384 77.9028 472.363 77.5726 472.363 77.2493C472.363 76.926 472.384 76.6208 472.405 76.3156V76.2069L472.409 76.2097C472.879 70.0836 477.518 67.7355 483.18 71.0048C485.592 72.3969 487.812 74.6015 489.611 77.181C490.887 68.8601 497.675 65.857 505.881 70.5951C514.996 75.8571 522.384 88.6555 522.384 99.1795L522.393 109.082C522.394 110.676 523.24 112.152 524.615 112.959L532.298 117.466C535.689 119.454 537.771 123.09 537.771 127.021C537.771 130.533 533.968 132.728 530.927 130.971L459.542 89.7355C455.685 87.5072 453.308 83.3906 453.308 78.9341C453.308 75.8362 456.652 73.8908 459.344 75.4237Z" fill="#E6E6E6"/>
<path d="M558.886 73.4922L568.383 78.8964V75.5352C568.367 75.2955 568.352 75.0558 568.352 74.8217C568.352 74.5862 568.367 74.3646 568.383 74.143V74.0636L568.387 74.065C568.728 69.6098 572.102 67.9027 576.219 70.2801C577.973 71.2932 579.587 72.8958 580.895 74.7715C581.824 68.7207 586.76 66.537 592.727 69.9819C599.356 73.8086 604.728 83.1161 604.728 90.7695L604.733 97.9699C604.735 99.1294 605.349 100.202 606.35 100.789L611.937 104.067C614.402 105.513 615.917 108.157 615.917 111.015C615.917 113.569 613.152 115.165 610.94 113.887L559.029 83.8993C556.224 82.2786 554.496 79.2852 554.496 76.0452C554.496 73.7932 556.928 72.3788 558.886 73.4922Z" fill="#E6E6E6"/>
<defs>
<linearGradient id="paint0_linear_991_1064" x1="528.126" y1="534.283" x2="554.824" y2="536.685" gradientUnits="userSpaceOnUse">
<stop stop-color="#008579"/>
<stop offset="1" stop-color="#00BA63"/>
</linearGradient>
<linearGradient id="paint1_linear_991_1064" x1="535.995" y1="544.882" x2="579.521" y2="553.129" gradientUnits="userSpaceOnUse">
<stop stop-color="#008579"/>
<stop offset="1" stop-color="#00BA63"/>
</linearGradient>
<linearGradient id="paint2_linear_991_1064" x1="266.237" y1="598.616" x2="408.878" y2="614.028" gradientUnits="userSpaceOnUse">
<stop stop-color="#008579"/>
<stop offset="1" stop-color="#00BA63"/>
</linearGradient>
<linearGradient id="paint3_linear_991_1064" x1="295.062" y1="166.627" x2="305.162" y2="168.695" gradientUnits="userSpaceOnUse">
<stop stop-color="#008579"/>
<stop offset="1" stop-color="#00BA63"/>
</linearGradient>
<linearGradient id="paint4_linear_991_1064" x1="309.783" y1="175.509" x2="321.171" y2="178.119" gradientUnits="userSpaceOnUse">
<stop stop-color="#008579"/>
<stop offset="1" stop-color="#00BA63"/>
</linearGradient>
<linearGradient id="paint5_linear_991_1064" x1="327.912" y1="188.124" x2="338.246" y2="189.78" gradientUnits="userSpaceOnUse">
<stop stop-color="#008579"/>
<stop offset="1" stop-color="#00BA63"/>
</linearGradient>
<linearGradient id="paint6_linear_991_1064" x1="343.893" y1="194.217" x2="353.444" y2="195.828" gradientUnits="userSpaceOnUse">
<stop stop-color="#008579"/>
<stop offset="1" stop-color="#00BA63"/>
</linearGradient>
<linearGradient id="paint7_linear_991_1064" x1="355.749" y1="205.925" x2="367.965" y2="208.473" gradientUnits="userSpaceOnUse">
<stop stop-color="#008579"/>
<stop offset="1" stop-color="#00BA63"/>
</linearGradient>
<linearGradient id="paint8_linear_991_1064" x1="373.207" y1="211.743" x2="383.307" y2="213.811" gradientUnits="userSpaceOnUse">
<stop stop-color="#008579"/>
<stop offset="1" stop-color="#00BA63"/>
</linearGradient>
<linearGradient id="paint9_linear_991_1064" x1="387.927" y1="219.639" x2="397.476" y2="221.251" gradientUnits="userSpaceOnUse">
<stop stop-color="#008579"/>
<stop offset="1" stop-color="#00BA63"/>
</linearGradient>
<linearGradient id="paint10_linear_991_1064" x1="409.118" y1="232.23" x2="419.275" y2="234.031" gradientUnits="userSpaceOnUse">
<stop stop-color="#008579"/>
<stop offset="1" stop-color="#00BA63"/>
</linearGradient>
<linearGradient id="paint11_linear_991_1064" x1="424.771" y1="241.385" x2="434.54" y2="243.276" gradientUnits="userSpaceOnUse">
<stop stop-color="#008579"/>
<stop offset="1" stop-color="#00BA63"/>
</linearGradient>
<linearGradient id="paint12_linear_991_1064" x1="214.456" y1="254.807" x2="262.239" y2="267.875" gradientUnits="userSpaceOnUse">
<stop stop-color="#008579"/>
<stop offset="1" stop-color="#00BA63"/>
</linearGradient>
<linearGradient id="paint13_linear_991_1064" x1="296.306" y1="531.617" x2="398.279" y2="546.501" gradientUnits="userSpaceOnUse">
<stop stop-color="#008579"/>
<stop offset="1" stop-color="#00BA63"/>
</linearGradient>
<linearGradient id="paint14_linear_991_1064" x1="240.112" y1="369.239" x2="257.531" y2="375.721" gradientUnits="userSpaceOnUse">
<stop stop-color="#008579"/>
<stop offset="1" stop-color="#00BA63"/>
</linearGradient>
<linearGradient id="paint15_linear_991_1064" x1="240.114" y1="421.848" x2="303.182" y2="443.221" gradientUnits="userSpaceOnUse">
<stop stop-color="#008579"/>
<stop offset="1" stop-color="#00BA63"/>
</linearGradient>
<linearGradient id="paint16_linear_991_1064" x1="302.655" y1="478.685" x2="370.457" y2="492.212" gradientUnits="userSpaceOnUse">
<stop stop-color="#008579"/>
<stop offset="1" stop-color="#00BA63"/>
</linearGradient>
<linearGradient id="paint17_linear_991_1064" x1="319.461" y1="375.806" x2="357.414" y2="389.984" gradientUnits="userSpaceOnUse">
<stop stop-color="#008579"/>
<stop offset="1" stop-color="#00BA63"/>
</linearGradient>
<linearGradient id="paint18_linear_991_1064" x1="363.411" y1="322.018" x2="385.028" y2="327.33" gradientUnits="userSpaceOnUse">
<stop stop-color="#008579"/>
<stop offset="1" stop-color="#00BA63"/>
</linearGradient>
<linearGradient id="paint19_linear_991_1064" x1="382.497" y1="326.435" x2="401.956" y2="313.368" gradientUnits="userSpaceOnUse">
<stop stop-color="#008579"/>
<stop offset="1" stop-color="#00BA63"/>
</linearGradient>
<linearGradient id="paint20_linear_991_1064" x1="374.803" y1="319.531" x2="389.593" y2="323.166" gradientUnits="userSpaceOnUse">
<stop stop-color="#008579"/>
<stop offset="1" stop-color="#00BA63"/>
</linearGradient>
<linearGradient id="paint21_linear_991_1064" x1="379.06" y1="319.541" x2="391.112" y2="322.182" gradientUnits="userSpaceOnUse">
<stop stop-color="#008579"/>
<stop offset="1" stop-color="#00BA63"/>
</linearGradient>
<linearGradient id="paint22_linear_991_1064" x1="342.131" y1="288.627" x2="372.429" y2="295.919" gradientUnits="userSpaceOnUse">
<stop stop-color="#008579"/>
<stop offset="1" stop-color="#00BA63"/>
</linearGradient>
<linearGradient id="paint23_linear_991_1064" x1="342.324" y1="329.097" x2="356.622" y2="337.602" gradientUnits="userSpaceOnUse">
<stop stop-color="#008579"/>
<stop offset="1" stop-color="#00BA63"/>
</linearGradient>
<linearGradient id="paint24_linear_991_1064" x1="337.083" y1="325.449" x2="342.485" y2="326.978" gradientUnits="userSpaceOnUse">
<stop stop-color="#008579"/>
<stop offset="1" stop-color="#00BA63"/>
</linearGradient>
<linearGradient id="paint25_linear_991_1064" x1="342.13" y1="287.825" x2="372.376" y2="295.218" gradientUnits="userSpaceOnUse">
<stop stop-color="#008579"/>
<stop offset="1" stop-color="#00BA63"/>
</linearGradient>
<linearGradient id="paint26_linear_991_1064" x1="370.307" y1="492.798" x2="385.15" y2="496.11" gradientUnits="userSpaceOnUse">
<stop stop-color="#008579"/>
<stop offset="1" stop-color="#00BA63"/>
</linearGradient>
<linearGradient id="paint27_linear_991_1064" x1="371.175" y1="492.801" x2="413.586" y2="497.739" gradientUnits="userSpaceOnUse">
<stop stop-color="#008579"/>
<stop offset="1" stop-color="#00BA63"/>
</linearGradient>
<linearGradient id="paint28_linear_991_1064" x1="100.272" y1="310.632" x2="156.864" y2="321.427" gradientUnits="userSpaceOnUse">
<stop stop-color="#008579"/>
<stop offset="1" stop-color="#00BA63"/>
</linearGradient>
<linearGradient id="paint29_linear_991_1064" x1="102.673" y1="235.393" x2="147.964" y2="256.907" gradientUnits="userSpaceOnUse">
<stop stop-color="#008579"/>
<stop offset="1" stop-color="#00BA63"/>
</linearGradient>
<linearGradient id="paint30_linear_991_1064" x1="167.554" y1="310.068" x2="177.941" y2="310.588" gradientUnits="userSpaceOnUse">
<stop stop-color="#008579"/>
<stop offset="1" stop-color="#00BA63"/>
</linearGradient>
<linearGradient id="paint31_linear_991_1064" x1="116.672" y1="274.203" x2="141.892" y2="279.848" gradientUnits="userSpaceOnUse">
<stop stop-color="#008579"/>
<stop offset="1" stop-color="#00BA63"/>
</linearGradient>
<linearGradient id="paint32_linear_991_1064" x1="100.272" y1="420.408" x2="156.864" y2="431.204" gradientUnits="userSpaceOnUse">
<stop stop-color="#008579"/>
<stop offset="1" stop-color="#00BA63"/>
</linearGradient>
<linearGradient id="paint33_linear_991_1064" x1="102.673" y1="345.171" x2="147.964" y2="366.685" gradientUnits="userSpaceOnUse">
<stop stop-color="#008579"/>
<stop offset="1" stop-color="#00BA63"/>
</linearGradient>
<linearGradient id="paint34_linear_991_1064" x1="167.554" y1="419.846" x2="177.941" y2="420.366" gradientUnits="userSpaceOnUse">
<stop stop-color="#008579"/>
<stop offset="1" stop-color="#00BA63"/>
</linearGradient>
<linearGradient id="paint35_linear_991_1064" x1="115.501" y1="367.153" x2="124.926" y2="368.364" gradientUnits="userSpaceOnUse">
<stop stop-color="#008579"/>
<stop offset="1" stop-color="#00BA63"/>
</linearGradient>
<linearGradient id="paint36_linear_991_1064" x1="141.286" y1="388.796" x2="150.694" y2="390.005" gradientUnits="userSpaceOnUse">
<stop stop-color="#008579"/>
<stop offset="1" stop-color="#00BA63"/>
</linearGradient>
<linearGradient id="paint37_linear_991_1064" x1="117.532" y1="365.959" x2="140.497" y2="373.958" gradientUnits="userSpaceOnUse">
<stop stop-color="#008579"/>
<stop offset="1" stop-color="#00BA63"/>
</linearGradient>
<linearGradient id="paint38_linear_991_1064" x1="116.616" y1="389.914" x2="139.555" y2="398.111" gradientUnits="userSpaceOnUse">
<stop stop-color="#008579"/>
<stop offset="1" stop-color="#00BA63"/>
</linearGradient>
<linearGradient id="paint39_linear_991_1064" x1="100.272" y1="200.856" x2="156.864" y2="211.652" gradientUnits="userSpaceOnUse">
<stop stop-color="#008579"/>
<stop offset="1" stop-color="#00BA63"/>
</linearGradient>
<linearGradient id="paint40_linear_991_1064" x1="102.673" y1="125.617" x2="147.964" y2="147.13" gradientUnits="userSpaceOnUse">
<stop stop-color="#008579"/>
<stop offset="1" stop-color="#00BA63"/>
</linearGradient>
<linearGradient id="paint41_linear_991_1064" x1="167.554" y1="200.291" x2="177.941" y2="200.811" gradientUnits="userSpaceOnUse">
<stop stop-color="#008579"/>
<stop offset="1" stop-color="#00BA63"/>
</linearGradient>
<linearGradient id="paint42_linear_991_1064" x1="117.197" y1="175.824" x2="142.194" y2="179.766" gradientUnits="userSpaceOnUse">
<stop stop-color="#008579"/>
<stop offset="1" stop-color="#00BA63"/>
</linearGradient>
<linearGradient id="paint43_linear_991_1064" x1="141.657" y1="150.372" x2="148.648" y2="151.307" gradientUnits="userSpaceOnUse">
<stop stop-color="#008579"/>
<stop offset="1" stop-color="#00BA63"/>
</linearGradient>
<linearGradient id="paint44_linear_991_1064" x1="138.419" y1="146.135" x2="142.099" y2="146.666" gradientUnits="userSpaceOnUse">
<stop stop-color="#008579"/>
<stop offset="1" stop-color="#00BA63"/>
</linearGradient>
</defs>
</svg>
