<svg width="155" height="154" viewBox="0 0 155 154" fill="none" xmlns="http://www.w3.org/2000/svg">
<path d="M77.9 154C120.426 154 154.9 119.526 154.9 77C154.9 34.4741 120.426 0 77.9 0C35.3741 0 0.900024 34.4741 0.900024 77C0.900024 119.526 35.3741 154 77.9 154Z" fill="url(#paint0_linear_2_3363)"/>
<path d="M81.7 62.8L81.5 62.6C81.0586 62.1402 80.5912 61.7061 80.1 61.3C79.6 60.9 79.2 60.5 78.7 60.1C78.586 59.9765 78.4504 59.8748 78.3 59.8C63.5 47.4 49.9 42.6 39.5 43.3H39.4C34.448 43.5183 29.7196 45.4238 26 48.7C19 55.2 17.3 67 23.5 81.3C23.5 81.4 23.6 81.5 23.7 81.6C26.7 88.4 31.6 95.8 38.5 103.4C41.8639 106.833 45.5101 109.977 49.4 112.8C51.1 114 52.8 115.2 54.6 116.3C53.2407 113.649 52.3926 110.765 52.1 107.8C48.5017 105.47 45.0913 102.862 41.9 100C29.7 88.5 14.6 66.6 26.9 50.7C30.2095 47.9281 34.2973 46.251 38.6 45.9C51.4 44.7 65.4 54.4 74.7 63.2C74.8 63.2 74.8 63.2 74.9 63.3C75.4821 63.7822 76.0178 64.3179 76.5 64.9C76.958 65.3431 77.3919 65.8105 77.8 66.3C88.4 78.1 100.1 98.9 89.7 112.3C86.8712 114.638 83.4393 116.128 79.8 116.6C78.2097 116.816 76.6027 116.883 75 116.8C70.2046 116.331 65.5313 115.011 61.2 112.9C60.1 112.4 59 111.9 57.9 111.3C58.2 112.1 58.7 112.9 59.1 113.7C59.4293 114.344 59.8319 114.948 60.3 115.5C61.5187 117.201 63.045 118.66 64.8 119.8C68.4378 122.119 72.5967 123.494 76.9 123.8H77.1C77.7 123.8 78.3 123.9 78.9 123.9C79.6 123.9 80.3 123.8 81.1 123.8C86.313 123.256 91.2339 121.127 95.2 117.7C96.2555 116.456 97.1928 115.117 98 113.7C98.4 112.9 98.9 112.1 99.2 111.3C106.4 94.5 93.7 74.8 81.7 62.8Z" fill="white"/>
<path d="M116.5 43.1C102.1 43 88.9 50.4 78.4 59.7C77.8 60.2 77.2 60.8 76.5 61.4L74.9 63C75 63 75 63 75.1 63.1C75.6822 63.5822 76.2178 64.1179 76.7 64.7C77.158 65.1431 77.5919 65.6105 78 66.1C78.6 65.5 79.1 65 79.6 64.4C80.2 63.8 80.8 63.1 81.5 62.5C86.9943 57.018 93.2606 52.3689 100.1 48.7C109.8 43.7 120.5 42 129.5 49.2C136.3 56.4 135 67.5 131.6 76L131.3 76.6C127.372 85.3097 121.765 93.1594 114.8 99.7C110.236 104.176 105.008 107.921 99.3 110.8C97.7 111.6 96.1 112.3 94.5 113C89.8684 114.85 84.9759 115.963 80 116.3C79.5 116.3 79 116.4 78.5 116.4C78.027 116.39 77.557 116.323 77.1 116.2C53.8 112.9 64.7 82.9 76.2 68.3C75.6 67.5 74.9 66.8 74.3 66.1C73.9609 65.6755 73.5934 65.2746 73.2 64.9C62 77.1 51.2 95.6 58.1 111C58.4 111.8 58.9 112.6 59.3 113.4C59.6293 114.044 60.032 114.648 60.5 115.2C61.7188 116.901 63.245 118.36 65 119.5C68.6378 121.819 72.7968 123.194 77.1 123.5H77.3C77.9 123.5 78.5 123.6 79.1 123.6C79.8 123.6 80.5 123.5 81.3 123.5C92.7 122.8 104.5 116 114.2 106.8C123.7 97.7 131.2 86.4 134 76.9C139.4 62 135.2 43.5 116.5 43.1Z" fill="white"/>
<defs>
<linearGradient id="paint0_linear_2_3363" x1="10.294" y1="40.04" x2="145.506" y2="113.96" gradientUnits="userSpaceOnUse">
<stop stop-color="#008579"/>
<stop offset="1" stop-color="#00BA63"/>
</linearGradient>
</defs>
</svg>
