<svg width="54" height="54" viewBox="0 0 54 54" fill="none" xmlns="http://www.w3.org/2000/svg">
<g filter="url(#filter0_d_991_1048)">
<circle cx="27.1615" cy="21.5096" r="20.9032" fill="#00BA63"/>
</g>
<path d="M27.1598 16.141C25.7357 16.141 24.3699 16.7068 23.3628 17.7138C22.3558 18.7208 21.79 20.0867 21.79 21.5108C21.79 22.935 22.3558 24.3008 23.3628 25.3079C24.3699 26.3149 25.7357 26.8806 27.1598 26.8806C28.584 26.8806 29.9498 26.3149 30.9569 25.3079C31.9639 24.3008 32.5297 22.935 32.5297 21.5108C32.5297 20.0867 31.9639 18.7208 30.9569 17.7138C29.9498 16.7068 28.584 16.141 27.1598 16.141ZM27.1598 24.9982C26.2346 24.9982 25.3473 24.6306 24.6931 23.9764C24.0389 23.3222 23.6713 22.4349 23.6713 21.5097C23.6713 20.5845 24.0389 19.6971 24.6931 19.0429C25.3473 18.3887 26.2346 18.0212 27.1598 18.0212C28.0851 18.0212 28.9724 18.3887 29.6266 19.0429C30.2808 19.6971 30.6484 20.5845 30.6484 21.5097C30.6484 22.4349 30.2808 23.3222 29.6266 23.9764C28.9724 24.6306 28.0851 24.9982 27.1598 24.9982Z" fill="white"/>
<path d="M32.7426 17.1955C33.434 17.1955 33.9945 16.635 33.9945 15.9436C33.9945 15.2522 33.434 14.6917 32.7426 14.6917C32.0512 14.6917 31.4907 15.2522 31.4907 15.9436C31.4907 16.635 32.0512 17.1955 32.7426 17.1955Z" fill="white"/>
<path d="M37.071 14.6708C36.8021 13.9766 36.3913 13.3461 35.8648 12.8198C35.3383 12.2935 34.7076 11.8829 34.0133 11.6143C33.2008 11.3093 32.3424 11.1444 31.4747 11.1266C30.3564 11.0778 30.0022 11.0638 27.1663 11.0638C24.3305 11.0638 23.967 11.0638 22.858 11.1266C21.9909 11.1435 21.1332 11.3084 20.3217 11.6143C19.6272 11.8826 18.9964 12.293 18.4698 12.8194C17.9433 13.3458 17.5325 13.9764 17.264 14.6708C16.9589 15.4833 16.7944 16.3417 16.7774 17.2094C16.7275 18.3266 16.7124 18.6807 16.7124 21.5178C16.7124 24.3537 16.7124 24.7148 16.7774 25.8262C16.7949 26.6948 16.9586 27.5518 17.264 28.3659C17.5333 29.0601 17.9444 29.6905 18.4711 30.2167C18.9978 30.743 19.6285 31.1537 20.3229 31.4224C21.1328 31.7397 21.9909 31.9164 22.8603 31.945C23.9786 31.9938 24.3328 32.0089 27.1687 32.0089C30.0045 32.0089 30.368 32.0089 31.477 31.945C32.3446 31.9274 33.203 31.7628 34.0156 31.4584C34.7098 31.1892 35.3402 30.7783 35.8667 30.2518C36.3932 29.7253 36.8041 29.0949 37.0733 28.4007C37.3787 27.5878 37.5425 26.7308 37.5599 25.8622C37.6098 24.745 37.6249 24.3908 37.6249 21.5538C37.6249 18.7167 37.6249 18.3567 37.5599 17.2454C37.5464 16.3654 37.381 15.4945 37.071 14.6708ZM35.6565 25.7402C35.649 26.4095 35.5269 27.0725 35.2954 27.7005C35.121 28.1521 34.854 28.5622 34.5116 28.9044C34.1692 29.2466 33.7589 29.5133 33.3072 29.6875C32.6862 29.9179 32.0302 30.0401 31.3679 30.0486C30.2647 30.0997 29.9534 30.1125 27.1245 30.1125C24.2933 30.1125 24.0041 30.1125 22.88 30.0486C22.218 30.0405 21.5623 29.9183 20.9418 29.6875C20.4886 29.5144 20.0767 29.2481 19.7328 28.9059C19.3889 28.5636 19.1207 28.1529 18.9456 27.7005C18.7173 27.0793 18.5952 26.424 18.5844 25.7623C18.5345 24.6591 18.5229 24.3478 18.5229 21.5189C18.5229 18.6889 18.5229 18.3997 18.5844 17.2744C18.5919 16.6055 18.7141 15.9429 18.9456 15.3153C19.2998 14.3991 20.0256 13.6779 20.9418 13.3272C21.5626 13.0974 22.2181 12.9753 22.88 12.966C23.9844 12.9161 24.2945 12.9022 27.1245 12.9022C29.9546 12.9022 30.2449 12.9022 31.3679 12.966C32.0303 12.974 32.6864 13.0962 33.3072 13.3272C33.7589 13.5017 34.1691 13.7687 34.5115 14.1111C34.8538 14.4535 35.1209 14.8637 35.2954 15.3153C35.5236 15.9366 35.6457 16.5918 35.6565 17.2535C35.7065 18.3579 35.7192 18.668 35.7192 21.498C35.7192 24.3269 35.7192 24.6312 35.6693 25.7414H35.6565V25.7402Z" fill="white"/>
<defs>
<filter id="filter0_d_991_1048" x="0.684107" y="0.606415" width="52.955" height="52.9548" filterUnits="userSpaceOnUse" color-interpolation-filters="sRGB">
<feFlood flood-opacity="0" result="BackgroundImageFix"/>
<feColorMatrix in="SourceAlpha" type="matrix" values="0 0 0 0 0 0 0 0 0 0 0 0 0 0 0 0 0 0 127 0" result="hardAlpha"/>
<feOffset dy="5.57419"/>
<feGaussianBlur stdDeviation="2.7871"/>
<feComposite in2="hardAlpha" operator="out"/>
<feColorMatrix type="matrix" values="0 0 0 0 0 0 0 0 0 0 0 0 0 0 0 0 0 0 0.25 0"/>
<feBlend mode="normal" in2="BackgroundImageFix" result="effect1_dropShadow_991_1048"/>
<feBlend mode="normal" in="SourceGraphic" in2="effect1_dropShadow_991_1048" result="shape"/>
</filter>
</defs>
</svg>
