<svg width="205" height="72" viewBox="0 0 205 72" fill="none" xmlns="http://www.w3.org/2000/svg">
<path d="M92.0815 44.6886C92.5407 44.656 93 44.7511 93.4085 44.9633C93.6845 45.0996 93.9209 45.3046 94.0949 45.5585C94.2152 45.7423 94.3077 45.9429 94.3695 46.1538C94.399 46.2581 94.4144 46.3659 94.4152 46.4743V47.8021H82.4264V29.8077C82.4272 29.6993 82.4426 29.5915 82.4721 29.4872C82.5085 29.2898 82.5865 29.1025 82.7009 28.9377C82.8255 28.7154 83.0179 28.5389 83.25 28.4341C83.5605 28.2729 83.9071 28.1941 84.2567 28.2051H85.9041V44.6886H92.0815Z" fill="white"/>
<path d="M106.587 29.167C106.711 28.8682 106.92 28.6128 107.189 28.4334C107.458 28.2541 107.774 28.1588 108.097 28.1597H109.836V45.2842C109.833 45.4226 109.818 45.5605 109.79 45.6963C109.774 45.9987 109.696 46.2947 109.561 46.5662C109.433 46.8736 109.246 47.1534 109.012 47.3904C108.719 47.6393 108.344 47.7699 107.96 47.7567H106.358V30.2659C106.353 30.1421 106.369 30.0184 106.404 29.8996C106.418 29.774 106.449 29.6508 106.496 29.5333C106.45 29.4875 106.496 29.3044 106.587 29.167Z" fill="white"/>
<path d="M121.093 28.3886H123.06L128.872 43.8647L133.768 30.6321C133.907 30.1528 134.158 29.7134 134.5 29.3501C134.752 29.0768 135.045 28.845 135.369 28.6633C135.705 28.4763 136.084 28.3815 136.468 28.3886H138.252L131.022 47.8024H126.721L120.223 30.3116C120.129 30.0318 120.098 29.7349 120.132 29.4417C120.176 29.2245 120.27 29.0207 120.406 28.8464C120.532 28.7118 120.67 28.5892 120.818 28.4801C120.904 28.4357 120.997 28.4048 121.093 28.3886Z" fill="white"/>
<path d="M149.006 28.7545C149.2 28.5116 149.477 28.3487 149.783 28.2967C150.058 28.2509 150.195 28.2051 150.241 28.2051H160.217V29.7618C160.238 30.0902 160.141 30.4154 159.942 30.6776C159.789 30.8817 159.583 31.04 159.347 31.1355C159.161 31.2317 158.96 31.2937 158.752 31.3186C158.659 31.3143 158.565 31.3299 158.478 31.3644H151.98V36.8131H157.151V38.2783C157.162 38.5595 157.115 38.84 157.013 39.1025C156.93 39.2952 156.805 39.4671 156.647 39.6061C156.507 39.741 156.333 39.8358 156.144 39.8809C155.965 39.9335 155.781 39.9643 155.595 39.9724H151.98V44.6885H158.34C158.464 44.6906 158.586 44.7059 158.706 44.7343C158.979 44.7895 159.233 44.9101 159.448 45.0855C159.664 45.261 159.833 45.4862 159.942 45.7416C160.148 46.1689 160.243 46.6415 160.217 47.1153L160.262 47.7563H148.548V30.2655C148.482 29.9958 148.489 29.713 148.569 29.4471C148.65 29.1812 148.801 28.942 149.006 28.7545Z" fill="white"/>
<path d="M179.069 44.6886C179.528 44.656 179.988 44.7511 180.396 44.9633C180.672 45.0996 180.909 45.3046 181.083 45.5585C181.203 45.7423 181.295 45.9429 181.357 46.1538C181.387 46.2581 181.402 46.3659 181.403 46.4743V47.8021H169.414V29.8077C169.415 29.6993 169.43 29.5915 169.46 29.4872C169.496 29.2898 169.574 29.1025 169.689 28.9377C169.813 28.7154 170.006 28.5389 170.238 28.4341C170.548 28.2729 170.895 28.1941 171.244 28.2051H172.892V44.6886H179.069Z" fill="white"/>
<path d="M202.772 28.3887H204.969L197.098 39.0571V45.3758C197.136 45.9896 196.94 46.5949 196.549 47.0699C196.371 47.2474 196.171 47.4012 195.954 47.5278C195.761 47.6164 195.562 47.6928 195.359 47.7567C195.135 47.8159 194.905 47.8466 194.673 47.8483H193.666V39.0571L185.796 28.3887H187.992C188.487 28.3962 188.974 28.5217 189.411 28.755C189.842 28.9761 190.242 29.2532 190.6 29.5791C191.015 29.9428 191.398 30.3411 191.744 30.7696L195.497 35.852L199.203 30.7238C199.521 30.2987 199.873 29.9005 200.256 29.5333C200.611 29.2375 200.994 28.9768 201.4 28.755C201.807 28.4905 202.288 28.3622 202.772 28.3887Z" fill="white"/>
<path d="M37.9419 29.3046L37.8504 29.213C37.6485 29.0025 37.4346 28.8037 37.2098 28.6178C36.981 28.4346 36.7979 28.2515 36.5691 28.0683C36.517 28.0118 36.455 27.9652 36.3862 27.931C29.6138 22.2533 23.3906 20.0555 18.6317 20.3761H18.5859C16.32 20.476 14.1563 21.3485 12.4542 22.8486C9.2511 25.8248 8.4732 31.2277 11.3102 37.7753C11.3102 37.8211 11.356 37.8668 11.4017 37.9126C12.7745 41.0262 15.0167 44.4144 18.1741 47.8943C19.7134 49.4661 21.3818 50.9058 23.1618 52.1983C23.9397 52.7477 24.7176 53.2972 25.5413 53.8008C24.9193 52.5868 24.5312 51.2666 24.3973 49.9089C22.7507 48.8421 21.1902 47.648 19.7299 46.3375C14.1473 41.072 7.23772 31.0445 12.8661 23.7643C14.3804 22.4951 16.251 21.7272 18.2198 21.5665C24.077 21.0171 30.4832 25.4585 34.7388 29.4877C34.7845 29.4877 34.7846 29.4877 34.8303 29.5335C35.0967 29.7543 35.3418 29.9996 35.5625 30.2661C35.772 30.469 35.9706 30.683 36.1574 30.9072C41.0078 36.3101 46.3616 45.8338 41.6026 51.9694C40.3082 53.0398 38.7379 53.7223 37.0725 53.9382C36.3449 54.0372 35.6095 54.0679 34.8761 54.0298C32.6818 53.8153 30.5433 53.2105 28.5613 52.2441C28.058 52.0151 27.5547 51.7862 27.0513 51.5115C27.1886 51.8778 27.4174 52.2441 27.6004 52.6104C27.7511 52.9053 27.9354 53.1819 28.1495 53.4346C28.7072 54.2136 29.4056 54.8813 30.2087 55.4034C31.8733 56.4652 33.7764 57.0947 35.7455 57.2349H35.837C36.1116 57.2349 36.3861 57.2807 36.6607 57.2807C36.981 57.2807 37.3013 57.2349 37.6674 57.2349C40.0528 56.9856 42.3045 56.0108 44.1194 54.4419C44.6023 53.8725 45.0313 53.2593 45.4006 52.6104C45.6019 52.2535 45.7851 51.8867 45.9497 51.5115C49.2444 43.8192 43.3872 34.7533 37.9419 29.3046Z" fill="white"/>
<path d="M53.866 20.33C47.2768 20.2843 41.2366 23.6725 36.4319 27.9308C36.1574 28.1597 35.8828 28.4344 35.5625 28.7091L34.8303 29.4418C34.8761 29.4418 34.8761 29.4417 34.9218 29.4875C35.1882 29.7083 35.4333 29.9536 35.654 30.2201C35.8635 30.423 36.0621 30.637 36.2489 30.8611C36.5234 30.5864 36.7522 30.3575 36.981 30.0828C37.2555 29.808 37.5301 29.4875 37.8504 29.2128C40.3645 26.7028 43.2319 24.574 46.3616 22.8941C50.8002 20.6048 55.6964 19.8264 59.8147 23.1231C62.9263 26.4198 62.3314 31.5022 60.7756 35.3941L60.6384 35.6688C58.8409 39.6568 56.2753 43.251 53.0882 46.2457C50.9998 48.2954 48.6073 50.0097 45.9955 51.3281C45.2634 51.6944 44.5312 52.0149 43.7991 52.3354C41.6797 53.1823 39.4409 53.6922 37.164 53.8464C36.9352 53.8464 36.7065 53.8922 36.4777 53.8922C36.2612 53.8875 36.0461 53.8568 35.837 53.8006C25.1752 52.2896 30.1629 38.5534 35.4252 31.8685C35.1506 31.5022 34.8304 31.1817 34.5558 30.8611C34.4007 30.6668 34.2324 30.4832 34.0524 30.3117C28.9274 35.8978 23.9855 44.3684 27.1428 51.4197C27.2801 51.786 27.5089 52.1523 27.692 52.5186C27.8427 52.8136 28.0269 53.0901 28.2411 53.3428C28.7987 54.1218 29.4971 54.7896 30.3002 55.3116C31.9648 56.3734 33.8679 57.0029 35.837 57.1431H35.9286C36.2031 57.1431 36.4776 57.1889 36.7522 57.1889C37.0725 57.1889 37.3929 57.1431 37.7589 57.1431C42.9754 56.8226 48.375 53.7091 52.8136 49.4966C57.1607 45.33 60.5926 40.156 61.8738 35.8062C64.2991 28.9381 62.423 20.4674 53.866 20.33Z" fill="white"/>
</svg>
