<svg width="215" height="60" viewBox="0 0 215 60" fill="none" xmlns="http://www.w3.org/2000/svg">
<path d="M91.0002 39.322C91.5016 39.2878 92.0032 39.3876 92.4493 39.6104C92.7507 39.7534 93.0088 39.9685 93.1989 40.235C93.3302 40.4279 93.4312 40.6384 93.4987 40.8597C93.5309 40.9692 93.5477 41.0823 93.5486 41.1961V42.5896H80.4568V23.7052C80.4577 23.5914 80.4745 23.4782 80.5067 23.3688C80.5464 23.1617 80.6316 22.9651 80.7566 22.7922C80.8926 22.5589 81.1027 22.3737 81.3562 22.2636C81.6953 22.0945 82.0738 22.0118 82.4555 22.0233H84.2544V39.322H91.0002Z" fill="white"/>
<path d="M106.84 23.0324C106.975 22.7188 107.204 22.4508 107.498 22.2626C107.791 22.0743 108.136 21.9743 108.489 21.9753H110.388V39.9467C110.385 40.092 110.368 40.2367 110.338 40.3792C110.32 40.6966 110.235 41.0072 110.088 41.2922C109.948 41.6148 109.744 41.9084 109.489 42.1571C109.169 42.4183 108.759 42.5554 108.339 42.5415H106.591V24.1857C106.585 24.0558 106.602 23.9259 106.641 23.8013C106.656 23.6694 106.689 23.5401 106.74 23.4168C106.69 23.3688 106.74 23.1766 106.84 23.0324Z" fill="white"/>
<path d="M122.681 22.2155H124.829L131.175 38.4571L136.522 24.5701C136.674 24.067 136.948 23.6059 137.321 23.2246C137.596 22.9379 137.917 22.6946 138.271 22.5039C138.637 22.3076 139.051 22.2081 139.47 22.2155H141.419L133.524 42.5896H128.827L121.731 24.2337C121.629 23.9401 121.595 23.6284 121.631 23.3207C121.679 23.0929 121.782 22.8789 121.931 22.6961C122.068 22.5547 122.219 22.4261 122.381 22.3116C122.475 22.2651 122.576 22.2326 122.681 22.2155Z" fill="white"/>
<path d="M153.162 22.6C153.374 22.3451 153.676 22.1741 154.011 22.1195C154.311 22.0714 154.461 22.0233 154.511 22.0233H165.404V23.6571C165.428 24.0017 165.321 24.3429 165.104 24.6181C164.937 24.8323 164.713 24.9985 164.455 25.0987C164.252 25.1996 164.032 25.2647 163.805 25.2909C163.703 25.2863 163.6 25.3027 163.505 25.3389H156.41V31.0571H162.056V32.5948C162.068 32.8899 162.017 33.1843 161.906 33.4597C161.815 33.6619 161.678 33.8424 161.506 33.9883C161.353 34.1298 161.163 34.2293 160.957 34.2766C160.762 34.3319 160.56 34.3642 160.357 34.3727H156.41V39.322H163.355C163.49 39.3242 163.624 39.3403 163.755 39.3701C164.052 39.428 164.33 39.5545 164.565 39.7387C164.8 39.9228 164.985 40.1591 165.104 40.4272C165.329 40.8756 165.433 41.3716 165.404 41.8688L165.454 42.5415H152.662V24.1857C152.589 23.9026 152.597 23.6059 152.685 23.3268C152.773 23.0478 152.938 22.7967 153.162 22.6Z" fill="white"/>
<path d="M185.991 39.322C186.492 39.2878 186.994 39.3876 187.44 39.6104C187.742 39.7534 188 39.9685 188.19 40.235C188.321 40.4279 188.422 40.6384 188.49 40.8597C188.522 40.9692 188.539 41.0823 188.539 41.1961V42.5896H175.448V23.7052C175.449 23.5914 175.465 23.4782 175.498 23.3688C175.537 23.1617 175.622 22.9651 175.747 22.7922C175.883 22.5589 176.094 22.3737 176.347 22.2636C176.686 22.0945 177.065 22.0118 177.446 22.0233H179.245V39.322H185.991Z" fill="white"/>
<path d="M211.875 22.2156H214.273L205.679 33.4117V40.0428C205.72 40.687 205.506 41.3223 205.079 41.8208C204.885 42.007 204.667 42.1685 204.43 42.3013C204.218 42.3942 204.001 42.4745 203.78 42.5415C203.535 42.6036 203.284 42.6359 203.03 42.6376H201.931V33.4117L193.337 22.2156H195.735C196.276 22.2234 196.807 22.3552 197.284 22.6C197.755 22.832 198.192 23.1229 198.583 23.4649C199.036 23.8465 199.454 24.2645 199.833 24.7143L203.93 30.048L207.977 24.6662C208.324 24.22 208.708 23.8021 209.127 23.4169C209.515 23.1064 209.933 22.8328 210.376 22.6C210.821 22.3224 211.346 22.1878 211.875 22.2156Z" fill="white"/>
<path d="M31.4761 59.7922C48.5863 59.7922 62.4568 46.4538 62.4568 30C62.4568 13.5462 48.5863 0.207764 31.4761 0.207764C14.3659 0.207764 0.495361 13.5462 0.495361 30C0.495361 46.4538 14.3659 59.7922 31.4761 59.7922Z" fill="url(#paint0_linear_664_7994)"/>
<path d="M33.005 24.5064L32.9245 24.429C32.7469 24.2511 32.5589 24.0831 32.3612 23.926C32.16 23.7712 31.9991 23.6165 31.7979 23.4617C31.7521 23.4139 31.6976 23.3746 31.637 23.3456C25.6823 18.5479 20.2103 16.6908 16.0259 16.9616H15.9857C13.9933 17.0461 12.0909 17.7833 10.5942 19.0509C7.77782 21.5658 7.09383 26.1314 9.58838 31.6642C9.58838 31.7029 9.6286 31.7416 9.66883 31.7803C10.8759 34.4113 12.8474 37.2745 15.6236 40.215C16.9771 41.5432 18.4441 42.7598 20.0092 43.852C20.6932 44.3163 21.3771 44.7806 22.1014 45.2062C21.5545 44.1803 21.2132 43.0646 21.0955 41.9174C19.6477 41.0159 18.2756 40.0069 16.9916 38.8995C12.0829 34.45 6.0075 25.9766 10.9564 19.8247C12.2879 18.7522 13.9326 18.1033 15.6638 17.9676C20.8139 17.5033 26.4467 21.2563 30.1885 24.6611C30.2288 24.6611 30.2288 24.6611 30.269 24.6998C30.5033 24.8864 30.7188 25.0937 30.9128 25.3189C31.097 25.4904 31.2717 25.6712 31.4358 25.8606C35.7007 30.4261 40.4081 38.4739 36.2237 43.6585C35.0856 44.563 33.7048 45.1398 32.2405 45.3222C31.6007 45.4059 30.9541 45.4318 30.3093 45.3996C28.3798 45.2183 26.4995 44.7073 24.7568 43.8907C24.3143 43.6972 23.8717 43.5037 23.4291 43.2716C23.5498 43.5811 23.751 43.8907 23.9119 44.2002C24.0444 44.4494 24.2065 44.6831 24.3948 44.8966C24.8851 45.5549 25.4992 46.1192 26.2053 46.5603C27.669 47.4576 29.3423 47.9895 31.0737 48.108H31.1542C31.3956 48.108 31.637 48.1467 31.8784 48.1467C32.1601 48.1467 32.4417 48.108 32.7636 48.108C34.861 47.8973 36.8409 47.0736 38.4366 45.7478C38.8613 45.2667 39.2385 44.7486 39.5632 44.2002C39.7402 43.8986 39.9013 43.5887 40.046 43.2716C42.9429 36.7715 37.7929 29.1106 33.005 24.5064Z" fill="white"/>
<path d="M47.0066 16.9224C41.2128 16.8837 35.9018 19.7468 31.6772 23.3451C31.4358 23.5385 31.1943 23.7707 30.9127 24.0028L30.2689 24.6219C30.3092 24.6219 30.3092 24.6219 30.3494 24.6606C30.5836 24.8472 30.7991 25.0544 30.9931 25.2797C31.1774 25.4511 31.352 25.6319 31.5162 25.8213C31.7576 25.5892 31.9588 25.3957 32.16 25.1636C32.4014 24.9314 32.6428 24.6606 32.9244 24.4285C35.135 22.3074 37.6562 20.5086 40.4081 19.0891C44.3108 17.1545 48.616 16.4968 52.2371 19.2825C54.973 22.0683 54.45 26.363 53.082 29.6518L52.9613 29.8839C51.3809 33.2538 49.1249 36.291 46.3226 38.8216C44.4863 40.5536 42.3827 42.0022 40.0862 43.1163C39.4425 43.4258 38.7987 43.6967 38.1549 43.9675C36.2914 44.6831 34.3229 45.1139 32.3209 45.2443C32.1197 45.2443 31.9186 45.283 31.7174 45.283C31.5271 45.279 31.3379 45.253 31.1541 45.2056C21.7794 43.9288 26.165 32.3214 30.792 26.6725C30.5506 26.363 30.269 26.0922 30.0275 25.8213C29.8911 25.6571 29.7432 25.502 29.5849 25.357C25.0786 30.0774 20.7333 37.2352 23.5095 43.1937C23.6302 43.5032 23.8314 43.8127 23.9923 44.1223C24.1249 44.3715 24.2868 44.6052 24.4751 44.8187C24.9655 45.477 25.5796 46.0413 26.2857 46.4824C27.7494 47.3797 29.4227 47.9116 31.1541 48.0301H31.2346C31.476 48.0301 31.7174 48.0688 31.9588 48.0688C32.2404 48.0688 32.5221 48.0301 32.844 48.0301C37.4307 47.7592 42.1784 45.1282 46.0812 41.5686C49.9035 38.0477 52.9211 33.6756 54.0476 30C56.1801 24.1963 54.5305 17.0384 47.0066 16.9224Z" fill="white"/>
<defs>
<linearGradient id="paint0_linear_664_7994" x1="4.27501" y1="15.6997" x2="57.6772" y2="46.0592" gradientUnits="userSpaceOnUse">
<stop offset="0.017" stop-color="#00BA63"/>
<stop offset="1" stop-color="#008579"/>
</linearGradient>
</defs>
</svg>
