<svg width="121" height="37" viewBox="0 0 121 37" fill="none" xmlns="http://www.w3.org/2000/svg">
<g id="Lively Logo">
<g id="Group 1436">
<g id="Group 1404">
<path id="Path 205" d="M47 23.1611C47.2507 23.1439 47.5015 23.1938 47.7245 23.3052C47.8752 23.3767 48.0043 23.4843 48.0993 23.6175C48.165 23.714 48.2155 23.8192 48.2492 23.9299C48.2653 23.9846 48.2737 24.0412 48.2742 24.0981V24.7948H41.7283V15.3526C41.7287 15.2957 41.7371 15.2392 41.7532 15.1844C41.7731 15.0809 41.8157 14.9826 41.8782 14.8961C41.9462 14.7795 42.0512 14.6869 42.178 14.6318C42.3475 14.5473 42.5368 14.5059 42.7276 14.5117H43.6271V23.1611H47Z" fill="black"/>
<path id="Path 206" d="M54.9201 15.0162C54.9875 14.8594 55.1019 14.7254 55.2487 14.6313C55.3955 14.5372 55.5681 14.4872 55.7446 14.4877H56.694V23.4734C56.6923 23.546 56.6839 23.6184 56.669 23.6896C56.6599 23.8484 56.6174 24.0037 56.544 24.1461C56.4739 24.3074 56.3721 24.4542 56.2442 24.5786C56.0842 24.7092 55.8793 24.7777 55.6696 24.7708H54.7951V15.5929C54.7925 15.5279 54.801 15.463 54.8201 15.4007C54.8278 15.3347 54.8446 15.2701 54.8701 15.2085C54.8451 15.1844 54.8701 15.0883 54.9201 15.0162Z" fill="black"/>
<path id="Path 207" d="M62.8402 14.6078H63.9145L67.0875 22.7286L69.7608 15.7851C69.8368 15.5336 69.9738 15.303 70.1606 15.1123C70.2981 14.969 70.4583 14.8473 70.6353 14.752C70.8184 14.6538 71.0253 14.6041 71.2349 14.6078H72.2093L68.2618 24.7948H65.9132L62.3654 15.6169C62.3142 15.4701 62.2972 15.3142 62.3155 15.1604C62.3394 15.0465 62.3908 14.9395 62.4654 14.8481C62.534 14.7774 62.6092 14.7131 62.6903 14.6559C62.7374 14.6326 62.7879 14.6163 62.8402 14.6078Z" fill="black"/>
<path id="Path 208" d="M78.0806 14.8C78.1867 14.6726 78.3379 14.5871 78.5053 14.5598C78.6552 14.5357 78.7301 14.5117 78.7551 14.5117H84.2017V15.3286C84.2135 15.5009 84.1603 15.6715 84.0518 15.8091C83.9684 15.9162 83.8561 15.9993 83.727 16.0494C83.6256 16.0999 83.5156 16.1324 83.4022 16.1455C83.3511 16.1432 83.3 16.1514 83.2523 16.1695H79.7045V19.0286H82.5278V19.7974C82.5338 19.945 82.5083 20.0922 82.4528 20.2299C82.4071 20.331 82.3389 20.4212 82.2529 20.4942C82.1763 20.5649 82.0815 20.6147 81.9781 20.6383C81.8806 20.666 81.7799 20.6821 81.6783 20.6864H79.7045V23.1611H83.1774C83.2447 23.1621 83.3117 23.1702 83.3772 23.1851C83.5258 23.2141 83.6648 23.2773 83.7823 23.3694C83.8998 23.4615 83.9923 23.5796 84.0518 23.7137C84.1644 23.9379 84.216 24.1859 84.2017 24.4344L84.2267 24.7708H77.8307V15.5929C77.7944 15.4513 77.7984 15.303 77.8424 15.1635C77.8864 15.0239 77.9686 14.8984 78.0806 14.8Z" fill="black"/>
<path id="Path 209" d="M94.4953 23.1611C94.7461 23.1439 94.9968 23.1938 95.2199 23.3052C95.3706 23.3767 95.4996 23.4843 95.5947 23.6175C95.6603 23.714 95.7109 23.8192 95.7446 23.9299C95.7607 23.9846 95.7691 24.0412 95.7695 24.0981V24.7948H89.2236V15.3526C89.2241 15.2957 89.2325 15.2392 89.2486 15.1844C89.2684 15.0809 89.311 14.9826 89.3735 14.8961C89.4415 14.7795 89.5466 14.6869 89.6734 14.6318C89.8429 14.5473 90.0321 14.5059 90.223 14.5117H91.1224V23.1611H94.4953Z" fill="black"/>
<path id="Path 210" d="M107.437 14.6078H108.637L104.339 20.2059V23.5214C104.36 23.8435 104.253 24.1612 104.04 24.4104C103.942 24.5035 103.833 24.5843 103.715 24.6507C103.609 24.6971 103.501 24.7373 103.39 24.7708C103.268 24.8018 103.142 24.818 103.015 24.8188H102.466V20.2059L98.1682 14.6078H99.3674C99.6378 14.6117 99.9034 14.6776 100.142 14.8C100.377 14.9161 100.596 15.0615 100.792 15.2325C101.018 15.4233 101.227 15.6323 101.416 15.8572L103.465 18.524L105.489 15.8331C105.662 15.61 105.854 15.4011 106.063 15.2085C106.257 15.0532 106.466 14.9164 106.688 14.8C106.91 14.6612 107.173 14.5939 107.437 14.6078Z" fill="black"/>
</g>
<g id="Group 1435">
<path id="Ellipse 65" d="M19.2379 33.3961C27.793 33.3961 34.7283 26.7269 34.7283 18.5C34.7283 10.2731 27.793 3.60388 19.2379 3.60388C10.6828 3.60388 3.74756 10.2731 3.74756 18.5C3.74756 26.7269 10.6828 33.3961 19.2379 33.3961Z" fill="url(#paint0_linear_925_23487)"/>
<g id="Group 1405">
<path id="Path 211" d="M20.0025 15.7532L19.9623 15.7145C19.8735 15.6256 19.7794 15.5416 19.6806 15.463C19.58 15.3857 19.4995 15.3083 19.399 15.2309C19.376 15.207 19.3488 15.1873 19.3185 15.1729C16.3411 12.774 13.6052 11.8454 11.513 11.9808H11.4929C10.4966 12.0231 9.54543 12.3917 8.79712 13.0255C7.38891 14.283 7.04692 16.5657 8.29419 19.3322C8.29419 19.3515 8.3143 19.3709 8.33442 19.3902C8.93794 20.7057 9.9237 22.1373 11.3118 23.6075C11.9885 24.2716 12.722 24.8799 13.5046 25.426C13.8466 25.6582 14.1886 25.8903 14.5507 26.1031C14.2772 25.5902 14.1066 25.0324 14.0477 24.4587C13.3239 24.008 12.6378 23.5035 11.9958 22.9498C9.54147 20.7251 6.50375 16.4884 8.97819 13.4124C9.64396 12.8762 10.4663 12.5517 11.3319 12.4838C13.9069 12.2517 16.7234 14.1282 18.5943 15.8306C18.6144 15.8306 18.6144 15.8306 18.6345 15.85C18.7516 15.9432 18.8594 16.0469 18.9564 16.1595C19.0485 16.2452 19.1358 16.3356 19.2179 16.4303C21.3504 18.7131 23.7041 22.737 21.6119 25.3293C21.0428 25.7816 20.3524 26.0699 19.6203 26.1612C19.3004 26.203 18.9771 26.2159 18.6546 26.1999C17.6899 26.1092 16.7498 25.8537 15.8784 25.4454C15.6571 25.3486 15.4359 25.2519 15.2146 25.1358C15.2749 25.2906 15.3755 25.4454 15.456 25.6001C15.5222 25.7248 15.6032 25.8416 15.6974 25.9484C15.9426 26.2775 16.2496 26.5596 16.6027 26.7802C17.3345 27.2288 18.1712 27.4948 19.0369 27.554H19.0771C19.1978 27.554 19.3185 27.5734 19.4392 27.5734C19.58 27.5734 19.7208 27.554 19.8818 27.554C20.9305 27.4487 21.9204 27.0369 22.7183 26.374C22.9307 26.1334 23.1192 25.8743 23.2816 25.6001C23.3701 25.4493 23.4507 25.2944 23.523 25.1358C24.9715 21.8858 22.3964 18.0554 20.0025 15.7532Z" fill="white"/>
<path id="Path 212" d="M27.0033 11.9612C24.1064 11.9418 21.451 13.3734 19.3386 15.1726C19.2179 15.2693 19.0972 15.3854 18.9564 15.5014L18.6345 15.811C18.6547 15.811 18.6546 15.811 18.6748 15.8303C18.7919 15.9236 18.8996 16.0272 18.9966 16.1398C19.0888 16.2256 19.1761 16.316 19.2582 16.4107C19.3789 16.2946 19.4795 16.1979 19.58 16.0818C19.7007 15.9657 19.8215 15.8303 19.9623 15.7142C21.0676 14.6537 22.3282 13.7543 23.7041 13.0445C25.6555 12.0773 27.808 11.7484 29.6186 13.1413C30.9866 14.5342 30.7251 16.6815 30.0411 18.3259L29.9807 18.442C29.1905 20.1269 28.0625 21.6455 26.6614 22.9108C25.7432 23.7768 24.6914 24.5011 23.5432 25.0582C23.2213 25.2129 22.8994 25.3483 22.5775 25.4838C21.6458 25.8416 20.6615 26.057 19.6605 26.1222C19.5599 26.1222 19.4593 26.1415 19.3588 26.1415C19.2636 26.1395 19.169 26.1265 19.0771 26.1028C14.3898 25.4644 16.5826 19.6607 18.896 16.8363C18.7753 16.6815 18.6345 16.5461 18.5138 16.4107C18.4456 16.3286 18.3717 16.251 18.2925 16.1785C16.0394 18.5387 13.8667 22.1176 15.2548 25.0969C15.3152 25.2516 15.4158 25.4064 15.4962 25.5611C15.5625 25.6858 15.6435 25.8026 15.7376 25.9094C15.9828 26.2385 16.2899 26.5206 16.6429 26.7412C17.3748 27.1899 18.2114 27.4558 19.0771 27.515H19.1174C19.2381 27.515 19.3587 27.5344 19.4795 27.5344C19.6203 27.5344 19.7611 27.515 19.922 27.515C22.2154 27.3796 24.5893 26.0641 26.5406 24.2843C28.4518 22.5239 29.9606 20.3378 30.5239 18.5C31.5901 15.5982 30.7653 12.0192 27.0033 11.9612Z" fill="white"/>
</g>
</g>
</g>
</g>
<defs>
<linearGradient id="paint0_linear_925_23487" x1="5.63738" y1="11.3499" x2="32.3385" y2="26.5296" gradientUnits="userSpaceOnUse">
<stop offset="0.017" stop-color="#00BA63"/>
<stop offset="1" stop-color="#008579"/>
</linearGradient>
</defs>
</svg>
