<svg width="43" height="43" viewBox="0 0 43 43" fill="none" xmlns="http://www.w3.org/2000/svg">
<circle cx="21.0938" cy="21.9062" r="20.3493" stroke="white" stroke-width="1.48897"/>
<path fill-rule="evenodd" clip-rule="evenodd" d="M29.7596 14.9432C29.8027 14.6818 29.7749 14.4136 29.6791 14.1665C29.5833 13.9195 29.423 13.7027 29.2149 13.5387C29.0068 13.3747 28.7585 13.2695 28.4959 13.234C28.2334 13.1986 27.9661 13.2342 27.722 13.3372L10.8321 20.4486C9.65479 20.9445 9.59454 22.6473 10.8321 23.1609C12.0576 23.672 13.3009 24.1391 14.5598 24.5615C15.7134 24.9427 16.9717 25.2953 17.9802 25.3951C18.2558 25.725 18.6024 26.042 18.956 26.3334C19.4963 26.7779 20.1462 27.2352 20.8179 27.6737C22.1631 28.5528 23.6556 29.3933 24.6611 29.9405C25.8631 30.5924 27.3022 29.8417 27.5175 28.531L29.7596 14.9432ZM12.7256 21.7939L27.6637 15.5052L25.5717 28.1873C24.585 27.651 23.1637 26.848 21.8974 26.0203C21.3138 25.6456 20.7504 25.2404 20.2095 24.8064C20.0649 24.6883 19.9245 24.5651 19.7887 24.437L23.701 20.5257C23.8863 20.3405 23.9905 20.0892 23.9906 19.8272C23.9907 19.5652 23.8867 19.3139 23.7015 19.1286C23.5163 18.9432 23.2651 18.8391 23.003 18.839C22.741 18.8389 22.4897 18.9429 22.3044 19.1281L18.0207 23.4118C17.2957 23.3189 16.2863 23.0503 15.1781 22.6848C14.353 22.41 13.5346 22.1129 12.7256 21.7939Z" fill="white"/>
</svg>
