<svg width="43" height="43" viewBox="0 0 43 43" fill="none" xmlns="http://www.w3.org/2000/svg">
<circle cx="21.4062" cy="21.9062" r="20.3493" stroke="white" stroke-width="1.48897"/>
<path d="M24.2911 10.7383C22.7691 10.7383 21.3094 11.3429 20.2332 12.4191C19.1569 13.4953 18.5523 14.955 18.5523 16.477V19.6721H15.4813C15.3275 19.6721 15.2021 19.7962 15.2021 19.9513V24.17C15.2021 24.3239 15.3262 24.4492 15.4813 24.4492H18.5523V33.1039C18.5523 33.2577 18.6764 33.383 18.8315 33.383H23.0503C23.2041 33.383 23.3294 33.259 23.3294 33.1039V24.4492H26.4277C26.5555 24.4492 26.6672 24.3624 26.6982 24.2383L27.7529 20.0195C27.7633 19.9784 27.7642 19.9354 27.7554 19.8938C27.7467 19.8523 27.7286 19.8133 27.7025 19.7798C27.6764 19.7463 27.643 19.7192 27.6049 19.7005C27.5668 19.6819 27.5249 19.6721 27.4824 19.6721H23.3294V16.477C23.3294 16.3507 23.3543 16.2257 23.4026 16.109C23.451 15.9924 23.5218 15.8863 23.6111 15.797C23.7004 15.7078 23.8064 15.6369 23.9231 15.5886C24.0397 15.5403 24.1648 15.5154 24.2911 15.5154H27.5172C27.671 15.5154 27.7964 15.3913 27.7964 15.2362V11.0175C27.7964 10.8636 27.6723 10.7383 27.5172 10.7383H24.2911Z" fill="white"/>
</svg>
