<svg width="34" height="35" viewBox="0 0 34 35" fill="none" xmlns="http://www.w3.org/2000/svg">
<path d="M17.142 3.50964C11.0104 3.50964 5.99365 8.52642 5.99365 14.658C5.99365 22.1832 15.7485 30.6838 16.1666 31.1019C16.4453 31.2413 16.8633 31.3806 17.142 31.3806C17.4207 31.3806 17.8388 31.2413 18.1175 31.1019C18.5356 30.6838 28.2904 22.1832 28.2904 14.658C28.2904 8.52642 23.2737 3.50964 17.142 3.50964ZM17.142 28.1755C14.2156 25.3884 8.78075 19.3961 8.78075 14.658C8.78075 10.0593 12.5433 6.29674 17.142 6.29674C21.7407 6.29674 25.5033 10.0593 25.5033 14.658C25.5033 19.2567 20.0685 25.3884 17.142 28.1755ZM17.142 9.08384C14.0762 9.08384 11.5678 11.5922 11.5678 14.658C11.5678 17.7238 14.0762 20.2322 17.142 20.2322C20.2078 20.2322 22.7162 17.7238 22.7162 14.658C22.7162 11.5922 20.2078 9.08384 17.142 9.08384ZM17.142 17.4451C15.6091 17.4451 14.3549 16.1909 14.3549 14.658C14.3549 13.1251 15.6091 11.8709 17.142 11.8709C18.6749 11.8709 19.9291 13.1251 19.9291 14.658C19.9291 16.1909 18.6749 17.4451 17.142 17.4451Z" fill="url(#paint0_linear_991_1032)"/>
<defs>
<linearGradient id="paint0_linear_991_1032" x1="5.99365" y1="31.3806" x2="21.2002" y2="34.8237" gradientUnits="userSpaceOnUse">
<stop stop-color="#008579"/>
<stop offset="1" stop-color="#00BA63"/>
</linearGradient>
</defs>
</svg>
