<svg width="44" height="43" viewBox="0 0 44 43" fill="none" xmlns="http://www.w3.org/2000/svg">
<circle cx="21.9688" cy="21.9062" r="20.3493" stroke="white" stroke-width="1.48897"/>
<path d="M29.5399 14.3451C28.6252 13.4212 27.5358 12.6887 26.3351 12.1902C25.1344 11.6918 23.8465 11.4374 22.5465 11.442C17.0994 11.442 12.6599 15.8814 12.6599 21.3285C12.6599 23.0743 13.1188 24.7703 13.9768 26.2668L12.5801 31.3946L17.8177 30.0179C19.2642 30.806 20.8904 31.225 22.5465 31.225C27.9935 31.225 32.433 26.7855 32.433 21.3385C32.433 18.6947 31.4055 16.2106 29.5399 14.3451ZM22.5465 29.549C21.07 29.549 19.6234 29.1499 18.3564 28.4017L18.0571 28.2221L14.9445 29.0402L15.7725 26.0074L15.573 25.6981C14.7527 24.3882 14.3171 22.8741 14.316 21.3285C14.316 16.7992 18.0072 13.108 22.5365 13.108C24.7313 13.108 26.7964 13.966 28.3427 15.5223C29.1084 16.2844 29.7152 17.191 30.1279 18.1894C30.5406 19.1878 30.751 20.2581 30.747 21.3385C30.767 25.8677 27.0757 29.549 22.5465 29.549ZM27.0558 23.4036C26.8064 23.2839 25.5892 22.6853 25.3698 22.5955C25.1403 22.5157 24.9807 22.4758 24.8111 22.7152C24.6415 22.9646 24.1726 23.5233 24.0329 23.6829C23.8933 23.8525 23.7436 23.8725 23.4942 23.7428C23.2448 23.623 22.4467 23.3537 21.5089 22.5157C20.7707 21.8572 20.2818 21.0492 20.1322 20.7997C19.9925 20.5503 20.1122 20.4206 20.2419 20.291C20.3517 20.1812 20.4913 20.0016 20.611 19.862C20.7308 19.7223 20.7806 19.6126 20.8605 19.4529C20.9403 19.2833 20.9004 19.1437 20.8405 19.024C20.7806 18.9042 20.2818 17.6871 20.0823 17.1883C19.8828 16.7095 19.6733 16.7693 19.5236 16.7593H19.0448C18.8752 16.7593 18.6158 16.8192 18.3863 17.0686C18.1668 17.318 17.5283 17.9166 17.5283 19.1337C17.5283 20.3508 18.4162 21.528 18.536 21.6876C18.6557 21.8572 20.2818 24.3513 22.756 25.4188C23.3446 25.6782 23.8035 25.8278 24.1626 25.9376C24.7512 26.1271 25.29 26.0972 25.7189 26.0373C26.1978 25.9675 27.1855 25.4387 27.385 24.8601C27.5945 24.2815 27.5945 23.7926 27.5247 23.6829C27.4548 23.5732 27.3052 23.5233 27.0558 23.4036Z" fill="white"/>
</svg>
