<svg width="43" height="43" viewBox="0 0 43 43" fill="none" xmlns="http://www.w3.org/2000/svg">
<circle cx="21.5312" cy="21.9062" r="20.3493" stroke="white" stroke-width="1.48897"/>
<path d="M21.5313 18.9275C20.7415 18.9275 19.9841 19.2413 19.4256 19.7998C18.8671 20.3582 18.5534 21.1157 18.5534 21.9055C18.5534 22.6953 18.8671 23.4527 19.4256 24.0112C19.9841 24.5697 20.7415 24.8834 21.5313 24.8834C22.3211 24.8834 23.0786 24.5697 23.6371 24.0112C24.1955 23.4527 24.5093 22.6953 24.5093 21.9055C24.5093 21.1157 24.1955 20.3582 23.6371 19.7998C23.0786 19.2413 22.3211 18.9275 21.5313 18.9275ZM21.5313 16.9422C22.8477 16.9422 24.1101 17.4651 25.0409 18.3959C25.9717 19.3267 26.4946 20.5891 26.4946 21.9055C26.4946 23.2218 25.9717 24.4842 25.0409 25.415C24.1101 26.3458 22.8477 26.8687 21.5313 26.8687C20.215 26.8687 18.9526 26.3458 18.0218 25.415C17.091 24.4842 16.5681 23.2218 16.5681 21.9055C16.5681 20.5891 17.091 19.3267 18.0218 18.3959C18.9526 17.4651 20.215 16.9422 21.5313 16.9422ZM27.9835 16.6941C27.9835 17.0232 27.8528 17.3388 27.6201 17.5715C27.3874 17.8042 27.0718 17.9349 26.7427 17.9349C26.4136 17.9349 26.098 17.8042 25.8653 17.5715C25.6326 17.3388 25.5019 17.0232 25.5019 16.6941C25.5019 16.365 25.6326 16.0494 25.8653 15.8167C26.098 15.584 26.4136 15.4533 26.7427 15.4533C27.0718 15.4533 27.3874 15.584 27.6201 15.8167C27.8528 16.0494 27.9835 16.365 27.9835 16.6941ZM21.5313 13.9643C19.0755 13.9643 18.6745 13.9712 17.532 14.0219C16.7537 14.0586 16.2316 14.1628 15.7472 14.3514C15.3418 14.5003 14.9753 14.7388 14.6751 15.0493C14.3644 15.3494 14.1255 15.7159 13.9763 16.1213C13.7877 16.6077 13.6835 17.1289 13.6477 17.9061C13.5961 19.002 13.5892 19.3851 13.5892 21.9055C13.5892 24.3623 13.5961 24.7623 13.6467 25.9048C13.6835 26.6821 13.7877 27.2052 13.9753 27.6886C14.144 28.1204 14.3426 28.4311 14.6721 28.7607C15.0067 29.0942 15.3174 29.2937 15.7442 29.4585C16.2346 29.6481 16.7567 29.7533 17.531 29.7891C18.6268 29.8407 19.01 29.8467 21.5303 29.8467C23.9871 29.8467 24.3872 29.8397 25.5297 29.7891C26.306 29.7523 26.8281 29.6481 27.3135 29.4605C27.7185 29.3109 28.0848 29.0725 28.3856 28.7627C28.7201 28.4292 28.9196 28.1185 29.0844 27.6906C29.273 27.2022 29.3782 26.6801 29.4139 25.9039C29.4656 24.809 29.4715 24.4248 29.4715 21.9055C29.4715 19.4497 29.4646 19.0486 29.4139 17.9061C29.3772 17.1298 29.272 16.6057 29.0844 16.1213C28.9348 15.7163 28.6963 15.35 28.3865 15.0493C28.0865 14.7384 27.72 14.4995 27.3145 14.3504C26.8281 14.1618 26.306 14.0576 25.5297 14.0219C24.4348 13.9703 24.0527 13.9643 21.5313 13.9643ZM21.5313 11.979C24.2284 11.979 24.5649 11.9889 25.624 12.0386C26.6802 12.0882 27.4009 12.254 28.0332 12.5001C28.6883 12.7523 29.2402 13.0937 29.7921 13.6447C30.2969 14.1409 30.6875 14.7411 30.9367 15.4036C31.1818 16.036 31.3486 16.7566 31.3982 17.8138C31.4449 18.8719 31.4578 19.2085 31.4578 21.9055C31.4578 24.6025 31.4479 24.939 31.3982 25.9972C31.3486 27.0543 31.1818 27.774 30.9367 28.4073C30.6881 29.0702 30.2975 29.6706 29.7921 30.1663C29.2958 30.6709 28.6956 31.0614 28.0332 31.3108C27.4009 31.556 26.6802 31.7228 25.624 31.7724C24.5649 31.819 24.2284 31.8319 21.5313 31.8319C18.8343 31.8319 18.4978 31.822 17.4386 31.7724C16.3825 31.7228 15.6628 31.556 15.0295 31.3108C14.3667 31.0621 13.7664 30.6715 13.2705 30.1663C12.7657 29.6701 12.3751 29.0699 12.126 28.4073C11.8798 27.775 11.714 27.0543 11.6644 25.9972C11.6168 24.939 11.6049 24.6025 11.6049 21.9055C11.6049 19.2085 11.6148 18.8719 11.6644 17.8138C11.714 16.7556 11.8798 16.0369 12.126 15.4036C12.3744 14.7407 12.7651 14.1403 13.2705 13.6447C13.7665 13.1396 14.3668 12.749 15.0295 12.5001C15.6618 12.254 16.3815 12.0882 17.4386 12.0386C18.4978 11.9919 18.8343 11.979 21.5313 11.979Z" fill="white"/>
</svg>
