<svg width="34" height="34" viewBox="0 0 34 34" fill="none" xmlns="http://www.w3.org/2000/svg">
<path d="M7.73558 5.92902H26.5485C27.7053 5.92894 28.8183 6.37154 29.6592 7.16603C30.5001 7.96052 31.005 9.04665 31.0705 10.2016L31.0775 10.458V23.6968C31.0776 24.8536 30.635 25.9666 29.8405 26.8075C29.046 27.6483 27.9599 28.1533 26.8049 28.2188L26.5485 28.2258H7.73558C6.57874 28.2259 5.46572 27.7833 4.62485 26.9888C3.78398 26.1943 3.27901 25.1082 3.21351 23.9532L3.20654 23.6968V10.458C3.20647 9.30121 3.64907 8.1882 4.44356 7.34733C5.23804 6.50646 6.32418 6.00148 7.47916 5.93598L7.73558 5.92902ZM28.9872 13.4166L17.6298 19.3949C17.5015 19.4626 17.3606 19.5029 17.2159 19.5133C17.0712 19.5236 16.926 19.5037 16.7895 19.4548L16.6557 19.3963L5.29687 13.4179V23.6968C5.29689 24.3088 5.52704 24.8984 5.94163 25.3487C6.35623 25.7989 6.92495 26.0767 7.5349 26.1271L7.73558 26.1355H26.5485C27.1607 26.1354 27.7506 25.9051 28.2008 25.4902C28.6511 25.0753 28.9288 24.5062 28.9788 23.896L28.9872 23.6968V13.4166ZM26.5485 8.01934H7.73558C7.12354 8.01936 6.53389 8.24951 6.08368 8.66411C5.63346 9.0787 5.35559 9.64742 5.30523 10.2574L5.29687 10.458V11.0559L17.142 17.2892L28.9872 11.0545V10.458C28.9871 9.84579 28.7568 9.25596 28.3419 8.80571C27.927 8.35545 27.358 8.07773 26.7478 8.0277L26.5485 8.01934Z" fill="url(#paint0_linear_991_1040)"/>
<defs>
<linearGradient id="paint0_linear_991_1040" x1="3.20654" y1="28.2258" x2="20.9664" y2="34.5089" gradientUnits="userSpaceOnUse">
<stop stop-color="#008579"/>
<stop offset="1" stop-color="#00BA63"/>
</linearGradient>
</defs>
</svg>
