<svg xmlns="http://www.w3.org/2000/svg" viewBox="0 0 18 12"><g id="Layer_2" data-name="Layer 2"><g id="Layer_1-2" data-name="Layer 1"><path d="M17.06,5H4.94A.94.94,0,0,0,4,5.94v.12A.94.94,0,0,0,4.94,7H17.06A.94.94,0,0,0,18,6.06V5.94A.94.94,0,0,0,17.06,5Z"/><path d="M17.06,10H.94a.94.94,0,0,0-.94.94v.12A.94.94,0,0,0,.94,12H17.06a.94.94,0,0,0,.94-.94v-.12A.94.94,0,0,0,17.06,10Z"/><path d="M17.06,0H.94A.94.94,0,0,0,0,.94v.12A.94.94,0,0,0,.94,2H17.06A.94.94,0,0,0,18,1.06V.94A.94.94,0,0,0,17.06,0Z"/></g></g></svg>